<svg xmlns="http://www.w3.org/2000/svg" xmlns:xlink="http://www.w3.org/1999/xlink" width="100%" viewBox="0 0 2560 2560" baseProfile="tiny-ps" height="150" xmlns:v="https://vecta.io/nano"><style><![CDATA[.B{fill:#e08978}.C{fill:#fffffe}.D{fill:#ef8f7d}.E{fill:#fffefd}.F{fill:#e56564}]]></style><path fill="#fff" d="M2 662V2h2560v2560H2V662m1659.98-311.416c.086-2.754-1.043-4.454-3.98-6.184 0-2.133 0-4.267 1.043-7.367-.351-4.544-.533-9.111-1.118-13.625-.332-2.567-.94-5.244-2.1-7.527-2.066-4.064-4.526-7.946-7.049-11.754-2.215-3.342-5.337-4.69-9.457-3.697-2.84.684-5.811 1.378-8.687 1.251-6.889-.304-13.756-1.09-21.875-2.293-6.697-4.757-8.871-11.556-7.619-20.422l-1.106-22.562c-.314-11.37-7.333-15.766-16.97-9.548-4.103 2.647-7.268 1.928-11.183-.029-.816-2.508-2.053-3.047-5.212-.828-.889 0-1.778 0-3.399-1.001-1.756.334-3.512.667-6.692.859-6.235-1.536-9.807-5.447-9.522-12.852l-1.069-13.642c-.623-6.546-.907-13.168-2.161-19.597-1.295-6.637-6.464-10.924-12.228-13.289-5.482-2.249-7.828 3.427-10.929 6.657-.384.4-1.21.377-2.54.746-4.045-6.41-10.982-8.348-19.127-9.881 0 0-1 0-1.217-1.401-4.459-4.347-7.49-8.743-8.499-15.698-.974-6.717-3.536-12.943-1.479-19.992.659-2.26-.761-5.102-1.132-7.692-.826-5.764-4.333-7.645-9.813-7.252-7.318.525-14.466-.195-21.367-3.088-3.179-1.333-6.681-1.936-8.827 3.123-.889 0-1.778 0-2.869-1.366-3.933-2.211-7.865-4.423-13.298-6.634-1.5 0-3 0-4.858-1.58-6.231-3.213-19.88-3.421-29.516-.42-404.708 0-809.417 0-1214.965-1.047-2.387.349-4.774.698-8.494 1.047-.889 0-1.778 0-2.903-1.383-1.407-3.415-4.121-2.493-6.757-2.12-5.776.817-4.822-2.383-4.074-5.443 3.761-.536 9.366-.742 9.427-1.435.621-7.076.368-14.231.251-21.362-.007-.445-.923-1.257-1.412-1.253-6.35.042-10.645-5.429-16.108-6.433-5.276-.969-8.78-2.874-12.591-6.389-2.009-1.853-6.824-1.651-10-.867-1.795.443-4.412 4.542-3.882 5.943 1.041 2.751 3.774 5.109 6.303 6.946 1.308.951 3.676.506 5.57.572 2.167.075 4.338.017 6.196.017l4.355 16.516c-3.138 4.248-6.08 2.156-9.22-.19-7.049-5.266-15.248-.038-22.795-2.076-.983-.265-3.883 4.06-4.759 6.644-.801 2.363-.808 5.557.139 7.844 2.526 6.1.677 11.567-.825 17.42-2.469 9.624-3.07 19.417.419 30.382 0 .889 0 1.778-.988 3.471-.021 4.482.425 8.757 4.988 13.071l-1.455 1204.397c-2.181 6.37-5.548 12.61-6.265 19.141-1.071 9.759-.309 19.722-.247 29.598.012 1.979.496 3.951.571 5.934.413 10.924 1.997 21.991.771 32.734-1.082 9.475.496 18.087 4.783 25.683 3.077 5.452 8.977 9.63 14.352 13.303 2.085 1.425 6.369-.843 9.333-.121 5.241 1.277 9.512-.701 14.256-2.083 6.06-1.766 12.484-2.284 20.273-3.597-.753 4.264-.73 8.277-2.195 11.642-4.114 9.45-5.631 18.853-2.666 28.953 2.974 10.13 11.333 16.042 17.815 23.385.948 1.074 4.929.972 6.309-.111 4.425-3.474 8.477-2.958 12.942-.506 4.669 2.564 8.74 2.725 11.779-2.754 2.305-4.155 5.645-4.331 8.983-1.024 1.608 1.593 2.948 3.456 3.941 4.639-1.219 4.907-2.98 9.018-3.133 13.187-.41 11.134-.943 22.136-3.491 33.107-2.364 10.179 4.911 15.018 14.918 12.625 5.768-1.38 11.691-2.595 17.555-3.854 2.072-.445 4.621.303 6.705 1.13 7.261 2.883 7.094 2.878 12.086-2.921 1.581-1.837 4.03-2.928 7.477-4.217l7.339 5.406c-7.78 9.633-6.97 20.184-6.745 30.64.07 3.269.011 6.541-.185 11.412-.483 4.85-1.942 9.85-1.229 14.518 1.174 7.686 5.71 9.228 12.87 5.554 1.428-.733 3.032-1.124 5.85-1.111 2.905 1.854 5.68 1.694 7.971-.914 3.944-4.49 7.279-3.848 11.652-.059 4.693 4.068 8.844 2.993 12.255-2.337 1.371-2.143 1.91-4.818 4.162-7.251.889 0 1.778 0 3.331 1.313 4.747 4.858 3.554 9.923 1.092 15.474-3.216 7.253-2.611 9.275 2.244 14.813 0 2.133 0 4.267-1.46 6.667-.711.645-2.038 1.283-2.045 1.935-.197 18.814 3.315 22.703 21.271 23.787 14.204.857 14.205.857 18.113-12.998.089-.316.083-.659 1.621-.99a95.6 95.6 0 0 1 5.955.158l14.15 8.129c.428 5.204 1.107 10.767-2.474 16.463-2.373 3.774-4.009 8.846-3.767 13.215.294 5.304 3.969 10.425 4.237 15.724.29 5.732-3.27 11.482-.026 17.434 2.865 5.257 5.151 6.209 9.981 2.055 4.249-3.654 6.968-3.033 11.138.198 6.879 5.332 15.08 1.015 22.67 1.513 1.256.083 2.835-2.548 4.013-4.113 1.089-1.448 1.84-3.15 2.715-4.696 4.778 1.228 5.665 4.594 5.75 7.859a78.11 78.11 0 0 1-.88 13.849c-.553 3.598-2.227 7.083 1.037 11.877 0 2.778 0 5.556-1.055 9.179-.008 1.548-.489 3.289.051 4.614 3.815 9.355 13.41 12.996 20.059 19.574.998.987 4.566-.624 8.445-1.034 1.5 0 3 0 6.034-.187 8.464-5.827 17.434-4.277 26.61-.378l8.219 16.394c-9.599 5.459-13.807 13.678-12.246 22.738.73 4.239 2.326 7.693 7.593 7.435 3.705-.182 6.608.573 9.661 3.62 4.908 4.899 10.159 2.928 12.658-3.729.435-1.16.938-2.295 1.93-4.705 8.438 5.159 14.634 11.87 21.256 17.971.988.911.694 3.161 1.102 4.763 1.198 4.7 2.452 9.387 3.684 15.745 0 2.778 0 5.556-1.104 9.302-1.531 8.793 1.646 15.724 8.417 21.221 2.272 1.845 4.537 2.62 8.021-.19.889 0 1.778 0 2.874 1.383 10.265 10.052 10.953 9.93 23.817 4.162 2.814-1.262 8.504-1.328 9.833.396 2.833 3.675 5.746 9.309 4.913 13.38-1.888 9.219-4.297 17.928 1.145 26.645.154.246.023.658.069.986 1.304 9.13 5.288 13.328 14.238 15.017 1.942.366 4.1.315 5.788 1.18 9.384 4.81 17.759 4.826 23.861-4.766 10.226 4.956 14.044 12.499 12.612 23.311-.178 1.345.978 2.867 1.516 5.906 0 2.133 0 4.267-1.146 7.484-2.013 14.452 1.59 20.431 14.888 24.551 2.203.683 4.715.674 6.692 1.725 7.404 3.935 13.952 3.765 19.584-3.08 2.748-3.34 5.785-2.64 8.735-.352 5.342 4.143 8.688 14.635 5.742 20.642-2.928 5.969-3.106 11.303.153 17.042.93 1.638 1.06 3.791 1.316 5.739 1.074 8.185 5.478 12.9 13.651 14.609 2.888.604 5.698 1.62 8.602 2.089 4.51.727 9.26 2.165 13.548 1.367 3.298-.614 6.042-4.206 9.165-6.574 7.323 3.787 12.66 11.053 10.711 17.802-2.868 9.928-.569 18.796 1.945 28.212 1.515 5.677 4.581 8.489 9.374 10.5 4.522 1.898 8.916 4.272 13.609 5.529 2.932.785 7.697 1.185 9.252-.477 6.487-6.932 12.809-2.675 19.149-.726 1.696.521 4.129 2.358 4.224 3.728.401 5.813 3.763 11.102 1.685 17.479-2.395 7.35-.497 10.133 7.12 16.613 0 1.5 0 3-1.085 5.424-.435 8.62 3.139 11.84 10.696 9.331a21.9 21.9 0 0 0 6.826-3.766c3.657-2.995 7.211-3.52 10.7-.209 4.072 3.864 8.669 5.574 14.324 6.022 2.74.217 6.711 2.67 7.601 5.053 2.37 6.351 3.802 13.148 4.804 19.888 1.166 7.84 1.417 15.813 2.183 23.717.556 5.745 3.022 8.2 8.464 6.761 5.182-1.37 9.942-4.336 15.729-6.987 4.65 2.609 10.166 6.382 16.2 8.924 8.228 3.466 16.781 1.534 25.41.639 8.266-.858 14.333-5.925 21.633-8.438.344-.119.352-1.216 1.849-1.857.889 0 1.778 0 2.811 1.437 1.789 6.593 5.904 10.933 12.632 12.343 5.865 1.229 8.724-1.001 9.166-6.922.219-2.938.051-5.905 1.059-8.858h2.875 1170.432l7.996.01c8.737.197 9.641.979 11.748 9.962 1.443 6.151 4.278 8.879 10.538 7.785 4.287-.749 8.39-3.365 12.197-5.751 2.352-1.475 3.993-4.085 5.986-6.221 9.91 6.772 20.439 3.59 30.54 3.931 1.108.038 2.753-.923 3.313-1.9 4.905-8.56 11.703-16.352 11.388-27.119-.088-2.996-.012-5.997-.012-8.995l-.061-74.963c-.015-3.316 1.647-7.772-3.939-10.239 0-1.5 0-3 1.189-5.676.269-1.62.773-3.239.774-4.859l-.048-244.608c-.003-2.453-1.249-4.905-1.916-9.024 0-2.778 0-5.556 1.571-8.687 4.625-7.307 2.594-14.975 1.079-22.565-.103-.516-1.731-.728-2.65-2.681 0-2.133 0-4.267 1.184-7.568.272-6.203.818-12.411.708-18.608-.061-3.418-1.225-6.817-1.892-11.557 0-.889 0-1.778 1.189-3.842.271-3.619.777-7.238.778-10.856l.029-827.238c0-2.996.338-6.08-.282-8.95-.316-1.459-2.418-2.533-3.713-5.38 0-2.133 0-4.267.916-7.085 1.256-3.064-1.106-2.947-3.068-4.742-1.282-3.524-2.565-7.049-3.844-12.227.726-3.882.943-7.952 2.288-11.606 2.606-7.081 1.712-13.421-1.69-20.03-3.352-6.513-7.834-9.399-13.893-5.511-5.969 3.83-9.967 2.037-14.077-1.73-3.009-2.758-5.744-3.969-9.782-2.17-1.992.887-4.549.507-8.042.618-.936-.639-1.872-1.279-2.97-3.383-3.288-5.567-6.819-10.951-6.091-18.023.14-1.361-2.428-3.001-3.901-5.945-3.356-5.033-4.465-9.16.516-14.75 4.911-5.512 1.394-12.763-5.562-15.948-7.773-3.558-14.174-1.211-19.917 3.545l-18.236-3.422c-1.549-.664-3.098-1.329-4.813-3.276a70.64 70.64 0 0 0-4.991-3.281c-.948-1.812-1.896-3.624-1.711-6.41 4.305-7.938 3.434-15.856-.512-23.526-2.386-4.638-4.852-8.922-5.062-14.53-.115-3.055-1.682-8.477-8.891-4.97-.889 0-1.778 0-3.716-1.14-1.568-.269-3.388-1.194-4.666-.704-9.824 3.763-19.041.882-28.451-3.439l-4.817-3.384c-.339-1.111-.678-2.222-.017-4.065-.334-1.756-.667-3.512-1.001-6.768 0-1.5 0-3 .993-5.29.015-.927.436-2.31-.016-2.711-4.955-4.396-5.855-9.07-2.057-14.8.842-1.27.674-4.128-.218-5.456-2.557-3.807-5.37-7.617-8.814-10.575-1.52-1.305-5.302-1.535-7.208-.571-10.438 5.278-20.268 3.811-30.147-1.366-1.946-1.019-4.343-1.177-7.409-2.163-.547-.399-.922-.922-1.123-3.398.628-7.203 1.484-14.396 1.829-21.612.454-9.487 2.436-20.125-8.323-25.371-6.012-2.931-13.158-3.648-19.882-4.88-.95-.174-2.403 2.395-4.957 3.694-.889 0-1.778 0-2.881-1.343-.618-.658-1.518-1.994-1.812-1.872-4.82 2.004-9.383.52-14.974-.785 0 0-1 0-1.165-1.283-1.278-.906-2.556-1.811-3.839-4.363-1.445-10.202-6.384-20.397-.055-30.613-1.714-4.909-2.309-10.774-5.457-14.457-3.159-3.696-7.684.154-11.67 1.778-2.157.879-5.519-.536-8.106-1.525-3.949-1.509-7.671-4.974-11.536-5.044-6.891-.126-12.866-2.704-19.361-6.071-.54-3.231-2.159-6.752-1.386-9.63 1.442-5.366 1.629-10.242-.047-15.566-.713-2.266.964-5.182.728-7.727-.289-3.124-.451-7.337-2.423-9.011-4.591-3.896-8.667-8.878-16.058-8.717-8.213.179-16.448-1.318-24.691-1.717-8.839-.428-15.023-5.715-15.844-14.407-.279-2.959-.756-6.302.273-8.912 4.733-11.993-1.41-20.553-8.595-28.713-5.324-6.046-12.357-4.565-15.625 2.96-.597 1.375-.985 2.841-1.447 4.201-1.306-.307-2.244-.252-2.485-.635-.848-1.347-1.741-2.775-2.108-4.296-2.103-8.7-2.036-8.619-11.193-6.902-2.908.545-5.936.451-10.097.078-1.604-2.476-3.208-4.952-3.85-8.149-.987-2.426-1.975-4.853-2.962-8.612 0-.889 0-1.778 1.074-3.565.315-4.385-.09-8.977 1.093-13.114 2.483-8.68-.628-14.078-10.599-16.866-.399-.547-.922-.921-1.859-2.603-1.924-.815-4.247-2.762-5.703-2.249-6.056 2.135-11.328-.016-17.015-1.394-3.375-.818-7.309.672-12.183 1.042-.936-.639-1.872-1.279-2.974-3.201-1.278-.906-2.556-1.811-4.991-3.281-.948-1.812-1.895-3.624-1.727-6.438 2.373-5.556-.022-10.597-2.65-14.995-2.184-3.655-2.692-6.587-.449-9.999 3.736-5.684 1.952-11.805-1.73-15.53-2.453-2.481-8.865-2.785-12.792-1.633-4.99 1.464-9.055.003-14.828-.842-.889 0-1.778 0-2.999-1.538-4.563-5.022-10.498-1.31-16.735-2.94-.978-1.174-1.956-2.348-2.936-5.027-.034-2.964.322-6.168-3.997-7.996 0-1.5 0-3 .99-5.3-.265-1.525.021-3.736-.885-4.465-5.853-4.711-6.977-8.532-1.528-15.309 5.608-6.974-.068-15.798-9.263-15.206-4.578.295-9.009 2.852-14.396 4.69-1.555-.654-4.237-1.781-7.224-4.404-5.195-4.265-11.873-2.704-17.86-5.788-1.278-.906-2.556-1.811-3.854-4.133z"/><path d="M1426 124c1.5 0 3 0 5.351.683 4.784 2.894 8.716 5.106 12.649 7.317l4.12.001c6.451 1.965 11.45 3.928 16.448 5.891 3.441.651 7.398.458 11.34.1 4.553-.414 6.765 2.103 7.746 6.074 1.078 4.365-1.15 6.891-4.953 8.56-2.862 1.256-5.629 2.727-10.835 5.276 4.343 2.064 6.348 3.532 8.558 3.974 8.029 1.608 8.3 1.442 9.524 9.67 1.077 7.242 4.791 11.44 12.052 12.454 0 0 1 0 1.604.689 10.877 5.874 15.938 15.829 21.359 25.467 1.443-1.403 2.315-1.964 2.234-2.216-1.493-4.6.093-8.617 4.489-9.187 2.95-.382 6.999 1.81 9.359 4.09 4.167 4.025 5.528 9.417 5.079 15.458-.408 5.486-1.264 11.432 3.876 15.699.768 6.412 4.341 10.322 11.654 12.429 2.834.238 4.59-.096 6.346-.429.889 0 1.778 0 3.667.491 2.111.83 3.222 1.17 4.417 2.261 2.861 4.338-.227 11.194 7.523 12.957 1.454-2.812 2.515-5.964 4.494-8.355 1.661-2.007 4.588-4.586 6.607-4.317 3.482.464 3.661 4.197 2.867 7.254-1.563 6.012-3.334 11.97-4.982 17.822L1600 280c-.114 7.833 2.06 14.632 9.719 20.333 3.632 4.453 7.252 3.493 10.887 3.367 2.427-.085 5.135.474 7.29 1.578 3.847 1.972 7.371 4.574 11.037 6.917-6.722 4.442-8.758 7.566-5.888 10.98 2.832 3.369 7.897 8.423 10.584 7.68 7.906-2.185 10.65 2.748 14.371 7.144l.052 7.842c1.351 3.014 2.65 4.586 4.031 6.799 1.361 1.547 2.639 2.453 4.254 4.001 5.042 6.146 11.451 5.392 17.735 6.07 2.052 5.09 2.983 10.154 8.254 13.328l7.257-6.628c2.486-2.344 5.04-4.882 8.497-1.866 3.391 2.957 1.215 6.154-.413 8.933-1.758 3.001-4.01 5.712-6.057 8.564L1716 396l.005 5.948c1.335 3.649 2.665 5.851 3.995 8.052a126.92 126.92 0 0 0 3.837 4.432c5.326 5.605 11.058 2.79 16.163 3.568.889 0 1.778 0 3.35.808 1.746 6.027 2.808 11.245 4.048 17.336 3.028-4.084 5.037-7.054 7.319-9.796 2.412-2.899 5.499-5.677 9.375-3.792 2.348 1.142 4.987 3.937 5.378 6.335.625 3.836-2.302 6.565-5.849 8.346-2.513 1.262-4.837 2.902-7.099 4.284.586 1.457.671 2.414 1.09 2.593 4.111 1.767 9.379 2.39 12.12 5.364 2.733 2.966 2.949 8.252 4.269 12.521.948 1.812 1.895 3.624 3.504 6.36 1.939 1.829 3.218 2.735 4.496 3.64.936.639 1.872 1.279 3.92 2.523 1.719.84 2.313 1.225 2.938 1.289 11.509 1.167 11.495 1.162 13.772 12.317.101.495.909.846 1.47 1.337 4.37.858 5.565-2.621 6.856-5.517 1.799-4.036 4.342-6.525 9.044-5.949.647.201 1.169.575 2.092 2.186 3.267 5.067 7.969 8.86 4.496 14.282-4.279 6.681-1.125 11.112 3.412 15.532 0 .889 0 1.778-.481 3.694.506 3.453 1.494 5.88 2.481 8.306 1.604 2.476 3.208 4.952 5.738 8.368 4.021 6.69 10.082 5.138 15.079 6.26 4.88 12.379 10.822 23.352 26.24 22.015 2.078 13.89 7.28 24.63 18.519 32.191 4.061 2.732 7.07 3.975 11.572 1.194 7.722-4.77 15.396-1.068 22.725 1.515 1.864.657 3.85 4.13 3.854 6.313.013 6.738 2.855 12.154 6.463 17.37 2.138 3.09 2.318 6.02.263 9.204-1.03 1.595-1.745 3.393-3.091 6.07 2.976 2.585 5.806 5.043 8.74 8.192 5.167 3.296 10.087 7.621 15.332 8.061 6.206.52 10.46 3.135 14.755 6.637 1.694 1.381 3.061 3.163 4.553 4.739 1.781-.694 3.022-1.123 4.217-1.654 3.597-1.6 7.444-4.318 11.007-.847 3.661 3.565 2.126 7.927.211 11.968-.426.898-.92 1.776-1.235 2.713-3.153 9.384-.884 16.964 7.138 24.335 1.361 1.547 2.639 2.453 3.917 3.358 0 0 1 0 1.612.704 2.646 4.299 5.633 5.592 9.676 4.604 2.212-.54 4.473-.879 6.712-1.309l4.106.001c5.396-.462 8.572 1.015 10.935 4.105 2.641 3.453 5.33 6.004 10.28 6.457 2.341.214 5.953 3.985 6.164 6.392.441 5.032.079 10.688-1.879 15.263-4.084 9.54-4.339 10.417 4.395 17.783.201.647.575 1.169 1.859 2.396 11.792 11.985 24.829 17.372 40.611 14.269 4.216 15.198 4.971 16.491 13.53 23.335 0 1.5 0 3-.5 5.616-.167 2.872.167 4.628.5 6.384.339 1.111.678 2.222 1.591 4.308 1.852 1.881 3.131 2.786 4.509 4.376 5.92 5.047 11.74 9.41 16.786 13.192L2156 818c.889 0 1.778 0 3.651.637 9.538 7.978-.964 13.249-1.6 19.838l7.063 4.05c7.426 4.082 7.567 4.634 6.025 13.338-.343 1.934.542 4.086.861 6.138.948 1.812 1.896 3.624 3.504 6.36 1.939 1.829 3.218 2.735 4.496 3.64 1.549.664 3.098 1.329 5.424 2.68 7.605 6.703 14.547 12.467 18.175 21.382 1.033 2.54 4.958 5.491 7.555 5.49 6.195-.003 11.43 2.258 16.846 5.308.012 3.505-.535 6.305.149 8.763 1.618 5.819 2.041 12.713 9.851 14.377l3.763 2.616c3.66 1.597 6.304 2.902 9.083 3.322 10.68 1.615 15.089 7.529 13.507 18.427-.123.843.512 1.797 1.042 3.487 1.589-1.138 3.118-1.784 3.953-2.934 1.355-1.866 2.111-4.156 3.378-6.098 2.371-3.632 5.5-5.975 10.064-4.104 3.192 1.309 4.218 5.816 2.372 10.615-.823 2.14-2.327 4.008-3.421 6.054-3.045 5.695-2.167 8.24 4.258 12.615 1.282 3.524 2.565 7.049 3.965 11.882.757 2.246 1.396 3.182 2.035 4.118v8.137 837.497c0 2.999-.227 6.024.096 8.988.2 1.84 1.24 3.589 1.903 5.378 0 .889 0 1.778-.592 3.917-.864 7.454-1.41 13.662-1.299 19.859.061 3.418 1.225 6.817 1.891 10.224v8.121V1916c0 2.778 0 5.556-.594 9.754-.864 3.041-1.368 4.66-1.369 6.28l.048 244.609c.003 2.453 1.249 4.905 1.916 7.357v6.187l.268 90.67c.254 10.056-5.09 16.872-9.365 24.576-.666 1.2-2.712 2.324-4.112 2.313-7.848-.059-16.174 2.319-23.137-3.318-3.533-2.86-6.257-2.521-9.621.406-4.607 4.01-9.675 7.492-15.042 11.58-1.324-2.468-2.419-3.789-2.771-5.284-1.9-8.08-6.361-12.242-14.621-13.057-2.642-.26-5.329-.072-7.995-.072-387.621-.001-775.242-.002-1162.863.003-2.998 0-6.085-.338-8.957.282-1.461.315-2.536 2.418-3.785 3.713 0 0-1 0-2.233.089-3.578 3.194-5.923 6.298-8.539 9.763-4.841-1.636-6.408-9.466-13.228-7.852l-4.14.016c-11.274 3.849-22.437 2.133-31.911 7.512-1.185.673-3.38.344-4.777-.27-5.977-2.628-11.883-5.432-17.718-8.365-11.94-6.001-15.546-5.714-24.573 2.182-.368.322-1.262.041-2.424.041-3.607-5.493-4.276-11.873-4.547-18.504-.2-4.879-.504-9.973-2.06-14.527-2.538-7.43-3.486-14.098 2.82-20.13.813-.778.869-2.348 1.592-4.489-5.624-2.536-8.632-6.683-8.718-13.096-.045-3.368-3.113-5.141-6.59-3.5-2.859 1.349-3.451 3.896-1.946 6.698 1.644 3.062 3.428 6.048 5.316 9.356-6.369 4.093-11.14 4.019-16.397.133-8.572-6.335-11.402-6.087-20.054-.243-1.869 1.262-4.093 1.997-6.433 3.108L860 2244c0-1.5 0-3 .261-5.869-.393-4.99-1.047-8.613-1.7-12.233 9.167-1.335 9.167-1.335 9.957-13.081-.975.121-1.979.06-2.839.383-4.462 1.677-7.666-.706-8.679-4.273-.774-2.728.027-6.826 1.765-9.013 1.109-1.395 5.21-.523 7.962-.436.919.029 1.821 1.134 2.719 1.118 1.777-.031 4.8-.079 5.067-.874.623-1.853.686-4.816-.434-6.108-1.545-1.783-4.576-3.654-6.638-3.335-4.64.717-9.076 2.757-15.49 4.889-4.394-.215-8.313-3.855-10.257-10.869-.862 7.987-7.668 8.034-11.67 11.397-5.015 4.215-8.957 4.412-14.194 1.373-2.532-1.469-5.726-1.757-8.392-3.051-2.298-1.115-5.282-2.445-6.19-4.473-2.271-5.074-4.189-10.504-4.978-15.975-.532-3.693.639-7.854 1.889-11.519 1.265-3.708 4.347-4.842 8.072-2.877l9.248 4.969 4.652-7.704-17.011-8.966-4.118 1.855-19.835-21.459-6.599 3.104c.335 1.606.684 2.828.834 4.074.919 7.637-1.726 10.344-8.806 8.069-9.509-3.056-20.946-4.092-22.312-17.648-.057-.564-.83-1.025-1.156-1.598-5.241-9.21-4.617-12.017 3.719-18.732 5.083.245 9.726 1.023 14.238.55 6.021-.632 7.411-3.237 6.227-9.791-.12-.663-1.421-1.112-2.61-1.978l-5.717 5.213c-4.63-1.295-9.024-1.459-11.921-3.625-3.078-2.302-4.737-6.503-7.853-11.115-1.658-.876-5.018-2.339-8.036-4.322-4.343-2.854-7.889-2.937-11.097 1.636-1.088 1.551-2.573 3.315-4.247 3.875-6.112 2.042-23.295-3.225-25.878-12.547-1.088-3.926-3.918-7.369-5.955-11.032 0-2.133 0-4.267.584-7.64 4.192-8.453 10.621-6.949 16.275-5.562 4.432 1.087 7.716.871 11.366-3.536l-3.861-7.071c-3.914 1.35-7.769 3.83-8.975 2.895-4.97-3.854-13.317-3.629-14.882-11.753-.169-.876-1.009-2.167-1.726-2.309-7.964-1.571-10.465-8.503-13.869-14.33-8.591 3.009-8.591 3.009-7.756 9.712.76 6.104-2.105 8.701-7.974 6.991-3.167-.922-6.14-2.549-9.329-3.343-6.637-1.653-11.54-4.468-12.365-12.254-.287-2.709-2.549-5.358-4.319-7.727-3.124-4.183-2.146-8.28.203-12.067 2.392-3.857 5.978-4.264 10.491-3.289 3.61.78 7.981.632 11.359-.729 4.646-1.872 4.869-5.282 1.516-10.114l-6.158 5.704c-3.917-2.04-7.184-4.434-10.835-5.455-3.904-1.092-5.151-3.112-5.861-6.859-1.211-6.394-13.694-11.989-17.929-7.545-6.84 7.176-13.262 7.53-20.995 2.46-.717-.47-1.959-.138-2.958-.178-.889 0-1.778 0-3.729-.552-6.442-3.694-10.336-7.725-11.022-14.431-.248-2.424-2.119-4.682-3.249-7.016 0-2.778 0-5.556.551-9.622 4.704-8.951.604-16.778.859-24.523.036-1.097-2.045-3.197-3.209-3.243-5.702-.226-8.747-4.27-12.292-7.697-8.68-8.39-10.009-8.5-20.458-1.943-.509.319-1.256.259-.75.166-3.745-1.089-6.522-2.615-9.226-2.493-3.067.138-6.126 2.763-9.066-.703-.298-5.508 4.44-6.748 7.687-9.282 6.453-5.035 8.241-13.14 4.05-19.275-3.155-4.617-6.747-8.935-10.172-14.187-1.46-2.247-3.161-5.124-4.283-4.914-10.533 1.976-15.233-6.529-21.622-11.73-3.419-2.783-1.901-6.969 2.327-8.332 5.398-1.74 7.325 2.758 10.019 5.931 3.92-1.639 8.23-1.87 9.149-7.515-4.853-2.679-9.481-6.932-14.618-7.675-7.92-1.145-5.745-10.139-12.482-12.909l-9.502 14.584c-1.995-4.243-3.028-7.757-5.078-10.514-3.705-4.981-4.776-9.81-2.422-15.773 1.529-3.874-.206-6.676-4.492-8.471-8.691-3.638-8.504-3.897-7.236-12.723.207-1.444-.56-3.028-.918-4.741-5.456.109-8.5 1.634-9.051 7.342-.248 2.568-2.423 5.256-4.36 7.28-2.726 2.847-5.872 5.386-9.167 7.56-2.357 1.555-5.162 2.677-7.924 3.322-6.615 1.545-9.655-3.82-14.18-7.041-4.877-3.471-4.794-6.117-2.142-11.431 2.26 1.579 4.427 2.452 5.59 4.054 1.86 2.563 3.722 5.568 7.006 3.755 2.294-1.267 5.228-4.531 5.021-6.621-.847-8.568 4.488-10.806 10.922-12.599 1.101-.307 2.036-1.21 3.075-1.855-9.697-13.994-10.857-14.036-20.281-1.083l-8.211-.488-4.096 10.344c-4.621 2.121-8.24.302-9.54-3.182-.942-2.525.246-6.271 1.462-9.043 1.01-2.301 3.726-3.786 5.201-5.961 5.27-7.777 6.299-16.793 6.956-25.843.052-.715-1.138-1.521-1.411-1.861l-13.251.58c0-2.862-.543-4.747.094-6.057 2.678-5.506.264-8.802-4.298-11.489-1.712-1.009-3.153-2.804-4.964-3.261-8.336-2.101-12.237-8.013-14.417-15.674-.116-.406-1.106-.563-2.182-1.068-7.456 7.721-18.144 12.609-21.315 24.549-1.104 4.156-4.52 2.835-7.351 1.356l.011-7.959c.069-2.213-.029-2.931.209-3.511l12.181-29.581c.832-2.072 1.396-4.405 1.368-6.609-.016-1.299-1.293-3.513-2.259-3.663-1.636-.254-4.303.259-5.06 1.416-1.733 2.646-2.574 5.876-3.963 9.334-2.017.178-4.252.375-6.777.12-1.43-.151-2.57.151-4.528.452-4.942-1.009-9.202-1.651-13.154-3.12-4.787-1.78-5.754-6.508-5.442-10.723.321-4.325 4.555-3.818 7.837-4.323 1.775-.274 3.39-1.586 6.288-3.036-3.201-4.917-5.59-9.666-9.055-13.422-1.579-1.711-5.535-2.405-7.941-1.771-1.655.436-2.874 3.831-3.601 6.121-.751 2.367-.67 4.997-.975 7.713-8.88.681-10.706-7.843-16.37-9.919 1.191-4.732 2.777-8.739 3.077-12.841.324-4.428.566-8.381 4.037-11.806 3.461-3.415 2.256-6.732-1.861-8.771-4.291-2.126-7.526-4.345-8.794-9.804-.945-4.067-5.645-4.968-10.397-3.346-1.201 4.437-1.336 7.951 3.174 11.212 5.04 3.644 4.715 4.095-.875 9.837-2.203 0-3.558-.161-4.863.027-6.623.952-11.355-1.273-14.74-7.317-4.042-7.219-9.182-13.458-16.933-17.396-3.351-1.703-5.815-5.15-8.884-7.991l3.894-8.462c2.019-4.586 5.099-5.873 9.563-3.249.857.504 1.798 1.17 2.715 1.194 1.497.04 3.555.119 4.358-.755.815-.886.894-3.081.432-4.4-2.066-5.902-8.008-7.892-14.844-3.988-4.911 2.804-7.945 1.892-12.52-.898-5.833-3.557-11.428-8.262-19.284-7.95-5.585.222-10.07-2.584-11.962-8.534-.959-3.017-2.521-5.842-3.976-9.13 4.05-1.392 7.295-2.192 10.254-3.596 4.558-2.162 4.733-6.675.191-9.08-2.076-1.1-4.974-1.296-7.383-.99-6.176.786-9.401 5.699-12.975 10.09-2.393 2.94-5.068 5.65-7.828 8.696-4.223-6.997-3.854-12.46.347-17.942 1.787-2.331 4.274-4.555 4.965-7.212 1.638-6.291 2.392-12.813 3.377-18.506-2.557-3.703-5.286-6.962-7.229-10.636-2.795-5.283-6.651-7.047-13.021-5.014l-3.119 10.131c2.964.466 4.596.558 6.121 1.009 1.42.42 2.726 1.222 4.502 2.052-2.756 5.116-5.79 6.892-10.75 4.327-1.934-1-4.453-2.269-6.297-1.802-7.605 1.926-15.054 4.471-22.944 6.907-2.846-1.328-7.003-2.093-9.15-4.588-2.321-2.696-2.657-7.051-4.073-10.597-.731-1.832-1.941-3.469-2.908-5.21-3.229-5.815-3.008-8.471 1.094-13.431 7.886-9.536 7.252-9.213 1.946-19.623-3.18-6.238-4.575-13.583-5.722-20.603-1.074-6.571 4.872-10.402 8.748-15.878-1.952-2.243-3.665-4.555-5.727-6.496-2.675-2.518-3.403-5.451-.62-7.73 5.714-4.682 3.648-9.994 2.115-15.429l.491-1205.45c-1.17-5.066-2.83-8.808-4.491-12.55 0-.889 0-1.778.545-3.777 2.022-5.012 5.295-9.24 4.657-12.759-2.416-13.319 3.791-25.12 5.311-37.68.133-1.097 1.387-2.225 2.374-3.025 5.724-4.639 11.03-3.33 14.181 3.59 1.466 3.22 1.864 8.402 6.518 7.317 8.972-2.09 17.62 1.61 26.414.333.889 0 1.778 0 3.753.523 3.473.174 5.86-.174 8.247-.523l1215.646.592c10.465.864 19.41 1.136 28.354 1.408M558.846 1804.005c-.013-4.573-.027-9.147.78-15.194.139-2.653.4-5.306.4-7.959l-.034-1185.394c0-3.247-.781-6.494-1.149-11.367.036-3.259.072-6.518 1.377-10.433.839-1.806 1.677-3.612 4.135-4.749 2.993.094 5.987.27 8.98.27l1216.921-.013 48.997.023c9.333.037 10.85 1.51 11.18 11.091.218 6.326.094 12.664.094 18.997l.029 1233.92c.001 19.005.424 17.774-18.191 17.773-415.973-.014-831.946-.015-1247.919.062-5.607.001-11.252.811-16.798 1.734-1.914.318-3.579 2.131-5.459 3.326 2.525 4.229 4.386 7.761 6.707 10.961.631.87 2.647.736 5.273 2.392 3.798 3.877 7.596 7.753 10.729 12.6 1.858 4.54 3.713 9.083 11.165 9.371 5.881 5.918 11.763 11.835 16.894 18.654 3.081 5.841 6.145 11.701 15.082 13.295 5.877 5.917 11.754 11.834 16.9 18.675.253.94.208 2.173.802 2.776l40.595 40.759c.485.482 2.049-.124 4.22.937 6.369 6.2 12.738 12.4 18.385 19.527 4.273 8.801 11.876 14.45 19.287 20.265.086.067.85-.73 2.831.624.583.512 1.165 1.024.668 2.168l22.539 23.612c.337.347 1.678-.28 3.834.692 3.216 3.259 6.431 6.518 8.883 10.661.446 1.209.561 2.746 1.386 3.578l53.395 53.391c1.047 1.034 3.319.828 6.477 2.509 1.817 1.873 3.634 3.745 4.706 6.523l15.499 16.701c.314.329 1.663-.33 3.865.92.485.442.97.885.684 2.236 2.323 5.286 4.746 10.457 13.254 11.636 1.813 1.866 3.626 3.731 4.706 6.507.261.936.228 2.162.825 2.766l44.733 44.852c.784.775 2.78.326 5.706 1.776 1.851 1.919 3.702 3.837 4.774 6.623.441 1.203.552 2.732 1.372 3.56l45.41 45.402c1.038 1.023 3.294.81 6.237 2.271 4.042 3.757 8.085 7.513 11.333 12.303 2.138 1.127 4.211 3.041 6.428 3.227 5.624.472 11.313.177 16.976.177l1247.198-.011c3.997 0 8.042.312 11.978-.191 5.111-.654 10.788-2.565 11.096-8.262.512-9.466-.586-19.019-.741-30.376-.085-8.066-.17-16.132.742-25.408-.332-6.251-.663-12.503-.741-20.544-.088-5.416-.176-10.832.755-17.525.168-1.976.482-3.953.482-5.929l-.044-300.188c-.002-2.853-.958-5.706-1.213-10.395-.229-7.479-.459-14.958.495-23.528.204-3.638.585-7.276.585-10.914l.025-785.912.097-50.992c.115-6.518-2.011-11.442-6.621-15.948l-41.66-41.513-42.305-42.245-47.818-46.845-60.86-61.929-166.137-166.16-79.448-77.318c-1.778-1.721-4.335-2.637-7.399-5.128l-56.062-57.047c-1.38-3.095-2.974-5.922-7.91-6.79L1663.318 372.36c-.306-2.957-1.795-4.178-5.815-4.347-1.511-1.373-3.023-2.746-4.291-5.273-1.705-1.236-3.411-2.472-5.943-4.875l-111.985-113.596c-.524-3.955-2.522-6.002-7.741-6.26-16.213-16.19-32.425-32.38-48.248-49.771-1.781-5.158-4.295-9.459-11.753-10.229-7.533-7.521-15.066-15.042-22.21-23.766-3.132-6.306-6.606-12.223-15.697-14.002-1.916-1.496-3.831-2.993-6.082-5.631-2.516-2.294-5.003-2.258-9.249-.453l-6.992-.16c-419.504-.009-839.009-.012-1258.513.012-4.316 0-8.631.363-13.795-.401-6.356-2.787-8.026-2.401-9.327 3.034-.76 3.177-.7 6.593-.7 9.902l-.029 1236.467c0 9.662.312 19.34-.134 28.982-.264 5.721 1.609 9.643 6.891 13.643 2.16 2.902 4.013 6.107 6.531 8.656l51.535 51.691 200.726 200.759 156.318 156.184c1.931 1.924 4.863 2.844 7.601 5.541 4.674 2.774 6.247 2.443 6.125-1.556-.171-5.616-.828-11.218-.701-18.591l-.995-24.315m-8.382 73.607c-1.288-.118-2.627-.513-3.854-.292-1.962.353-3.85 1.115-5.769 1.705.778 1.671 1.107 4.108 2.415 4.877 4.972 2.922 10.137 5.626 15.508 7.687 1.557.598 4.854-.66 5.862-2.106.915-1.313.555-4.659-.564-6.024-3.06-3.73-6.336-7.845-13.597-5.848m-18.462-16.854c-.153 5.746 1.179 10.345 8.667 11.001 1.061-3.59 2.492-6.89 2.936-10.318.561-4.339-3.344-9.139-7.026-9.244-5.061-.145-4.476 3.648-4.577 8.561z" class="E"/><path d="M1032.937 2302c.312-1.295 1.387-3.398 2.848-3.713 2.872-.621 5.959-.282 8.957-.282l1162.863-.003 7.995.072c8.259.815 12.72 4.977 14.621 13.057.352 1.496 1.447 2.817 2.771 5.284 5.367-4.087 10.435-7.569 15.042-11.58 3.363-2.928 6.088-3.266 9.621-.406 6.963 5.637 15.289 3.259 23.137 3.318 1.399.011 3.446-1.113 4.112-2.313 4.275-7.704 9.619-14.52 9.365-24.576-.749-29.644-.268-59.319-.268-89.92 5.586.029 3.924 4.486 3.939 7.801l.061 74.963.012 8.995c.315 10.767-6.484 18.56-11.388 27.119-.56.977-2.205 1.938-3.313 1.9-10.1-.341-20.629 2.841-30.54-3.931-1.992 2.135-3.633 4.746-5.986 6.221-3.806 2.386-7.91 5.002-12.197 5.751-6.26 1.094-9.095-1.634-10.538-7.785-2.107-8.983-3.01-9.765-11.748-9.962-2.664-.06-5.331-.01-7.996-.01H1032.937z" class="C"/><path fill="#fff" d="M339.27 1714.133c3.561 1.346 6.977 2.667 8.081-1.489 3.171-11.941 13.859-16.828 21.315-24.549 1.076.504 2.067.661 2.182 1.068 2.18 7.661 6.081 13.573 14.417 15.674 1.811.457 3.252 2.252 4.964 3.261 4.562 2.687 6.977 5.983 4.298 11.489-.637 1.31-.094 3.194-.094 6.057l13.251-.58c.273.34 1.463 1.146 1.411 1.861-.657 9.05-1.686 18.066-6.956 25.843-1.474 2.176-4.191 3.661-5.201 5.961-1.216 2.772-2.405 6.518-1.462 9.043 1.3 3.483 4.919 5.303 9.54 3.182l4.096-10.344 8.211.488c9.425-12.953 10.585-12.911 20.281 1.083-1.039.645-1.974 1.548-3.075 1.855-6.434 1.793-11.769 4.032-10.922 12.599.207 2.09-2.727 5.354-5.021 6.621-3.284 1.813-5.146-1.192-7.006-3.755-1.163-1.602-3.33-2.475-5.59-4.054-2.652 5.314-2.736 7.959 2.142 11.431 4.525 3.22 7.565 8.586 14.18 7.041 2.762-.645 5.567-1.767 7.924-3.322 3.295-2.174 6.441-4.713 9.167-7.56 1.938-2.024 4.112-4.712 4.36-7.28.551-5.707 3.595-7.233 9.051-7.342.358 1.713 1.125 3.297.918 4.741-1.268 8.826-1.454 9.085 7.236 12.723 4.287 1.795 6.021 4.597 4.492 8.471-2.354 5.963-1.282 10.792 2.422 15.773 2.051 2.757 3.084 6.271 5.078 10.514l9.502-14.584c6.737 2.77 4.562 11.764 12.482 12.909 5.136.743 9.765 4.996 14.618 7.675-.919 5.644-5.228 5.876-9.149 7.515-2.694-3.173-4.622-7.671-10.019-5.931-4.227 1.363-5.746 5.549-2.327 8.332 6.389 5.201 11.089 13.706 21.622 11.73 1.122-.21 2.823 2.667 3.844 5.13-.959 1.417-1.333 1.939-1.534 2.586-9.032-2.464-18.002-4.014-27.149 1.168-.092-1.803.498-2.961 1.09-4.117 4.042-7.896 1.386-12.672-7.254-13.049l-9.784-.431-6.547-18.813c-4.498-2.053-7.594.074-10.356 3.243-3.264-3.127-1.59-6.612-1.037-10.21a78.11 78.11 0 0 0 .88-13.849c-.085-3.266-.972-6.631-5.75-7.859-.875 1.547-1.626 3.248-2.715 4.696-1.178 1.566-2.757 4.196-4.013 4.113-7.59-.498-15.791 3.819-22.67-1.513-4.17-3.232-6.888-3.853-11.138-.198-4.83 4.153-7.116 3.201-9.981-2.055-3.244-5.952.316-11.703.026-17.434-.268-5.299-3.944-10.42-4.237-15.724-.242-4.369 1.394-9.441 3.767-13.215 3.581-5.696 2.902-11.259 2.474-16.463-5.164-2.967-9.657-5.548-14.793-8.946.796-4.284 2.235-7.751 3.948-11.879-5.791-2.084-10.293-4.298-15.047-5.251-4.835-.969-7.6 1.629-7.371 5.571.399 6.86 4.052 10.688 11.659 12.216-.038.331-.032.674-.121.99-3.908 13.855-3.909 13.855-18.113 12.998-17.956-1.084-21.468-4.972-21.271-23.787.007-.652 1.333-1.29 2.775-2.068m17.836 11.897c-3.725-.03-5.944 1.903-4.593 5.408.731 1.896 3.797 4.389 5.394 4.122 2.748-.459 5.171-2.864 7.73-4.453-1.653-1.662-3.255-3.381-4.998-4.942-.378-.339-1.262-.114-3.533-.135z"/><path d="M113.272 1386.136c2.26 5.299 4.326 10.611-1.388 15.293-2.782 2.28-2.054 5.212.62 7.73 2.062 1.941 3.775 4.253 5.727 6.496-3.876 5.476-9.822 9.307-8.748 15.878 1.147 7.019 2.542 14.365 5.722 20.603 5.306 10.41 5.94 10.086-1.946 19.623-4.102 4.96-4.323 7.616-1.094 13.431.967 1.741 2.177 3.379 2.908 5.21 1.416 3.546 1.752 7.901 4.073 10.597 2.147 2.494 6.304 3.259 9.15 4.588 7.89-2.436 15.339-4.981 22.944-6.907 1.844-.467 4.363.802 6.297 1.802 4.96 2.565 7.994.789 10.75-4.327-1.776-.83-3.082-1.632-4.502-2.052-1.525-.451-3.157-.544-6.121-1.009l3.119-10.131c6.37-2.033 10.226-.268 13.021 5.014 1.943 3.674 4.672 6.932 7.229 10.636-.984 5.693-1.739 12.215-3.377 18.506-.692 2.657-3.178 4.88-4.965 7.212-4.202 5.482-4.57 10.945-.347 17.942 2.76-3.046 5.435-5.756 7.828-8.696 3.573-4.39 6.798-9.303 12.975-10.09 2.409-.307 5.308-.11 7.383.99 4.541 2.405 4.366 6.918-.191 9.08-2.959 1.403-6.203 2.204-10.254 3.596 1.456 3.288 3.017 6.114 3.976 9.13 1.892 5.951 6.377 8.756 11.962 8.534 7.856-.312 13.451 4.392 19.284 7.95 4.575 2.79 7.609 3.702 12.52.898 6.836-3.903 12.777-1.913 14.844 3.988.462 1.319.383 3.514-.432 4.4-.803.874-2.861.795-4.358.755-.917-.025-1.859-.691-2.715-1.194-4.464-2.624-7.543-1.337-9.563 3.249-1.191 2.705-2.468 5.371-3.894 8.462 3.069 2.841 5.533 6.288 8.884 7.991 7.75 3.938 12.89 10.177 16.933 17.396 3.384 6.044 8.116 8.269 14.74 7.317 1.305-.188 2.66-.027 4.863.64.871 1.556.871 2.444.871 3.333-2.052 1.432-4.501 2.523-6.082 4.36-4.991 5.799-4.824 5.804-12.086 2.921-2.084-.827-4.633-1.574-6.705-1.13l-17.555 3.854c-10.008 2.393-17.282-2.446-14.918-12.625 2.548-10.971 3.081-21.972 3.491-33.107.154-4.17 1.914-8.28 3.133-13.187-.994-1.184-2.333-3.047-3.941-4.639-3.338-3.307-6.678-3.13-8.983 1.024-3.039 5.478-7.11 5.317-11.779 2.754-4.465-2.452-8.517-2.967-12.942.506-1.38 1.083-5.36 1.185-6.309.111-6.482-7.343-14.841-13.255-17.815-23.385-2.965-10.1-1.448-19.504 2.666-28.953 1.465-3.365 1.442-7.378 2.195-11.642-7.789 1.313-14.213 1.831-20.273 3.597-4.744 1.382-9.015 3.36-14.256 2.083-2.964-.722-7.247 1.546-9.333.121-5.375-3.673-11.275-7.851-14.352-13.303-4.287-7.596-5.864-16.208-4.783-25.683 1.226-10.743-.358-21.81-.771-32.734-.075-1.983-.558-3.955-.571-5.934-.062-9.876-.824-19.839.247-29.598.717-6.531 4.084-12.771 6.993-19.276m121.16 225.867c-5.259-.286-9.318 1.6-10.189 7.111-.73 4.617 2.117 7.202 6.662 8.528 4.109-4.623 4.184-10.276 6.233-15.781l1.937-1.832-1.26-1.092c-.605 1.021-1.21 2.042-3.383 3.066zm2060.163 237.41c-1.257-1.202-2.297-2.95-2.498-4.79-.323-2.964-.096-5.989-.096-8.988V998.937c1.295.31 3.397 1.383 3.713 2.843.621 2.87.282 5.954.282 8.95l-.029 827.238c0 3.619-.507 7.238-1.372 11.444zm-1613.167 213.13c2.611 3.121 5.441 6.564 6.528 10.49 2.583 9.322 19.765 14.589 25.878 12.547 1.674-.559 3.159-2.324 4.247-3.875 3.208-4.573 6.754-4.49 11.097-1.636 3.018 1.983 6.378 3.446 8.036 4.322 3.117 4.613 4.775 8.813 7.853 11.115 2.897 2.166 7.291 2.33 11.921 3.625l5.717-5.213c1.189.866 2.49 1.315 2.61 1.978 1.185 6.554-.206 9.159-6.227 9.791-4.512.473-9.155-.305-14.238-.55-8.336 6.715-8.961 9.521-3.719 18.732.326.573 1.099 1.034 1.156 1.598 1.366 13.557 12.803 14.592 22.312 17.648 7.079 2.275 9.725-.431 8.806-8.069-.15-1.246-.499-2.468-.834-4.074l6.599-3.104 19.835 21.459 4.118-1.855 17.011 8.966-4.652 7.704-9.248-4.969c-3.725-1.964-6.807-.831-8.072 2.877-1.25 3.665-2.422 7.826-1.889 11.519.788 5.47 2.706 10.901 4.978 15.975.908 2.028 3.892 3.358 6.19 4.473 2.666 1.293 5.86 1.581 8.392 3.051 5.237 3.039 9.179 2.842 14.194-1.373 4.002-3.363 10.808-3.411 11.67-11.397 1.944 7.014 5.863 10.654 10.257 10.869 6.414-2.132 10.85-4.172 15.49-4.889 2.062-.319 5.092 1.552 6.638 3.335 1.12 1.292 1.057 4.256.434 6.108-.267.795-3.29.843-5.067.874-.899.016-1.801-1.089-2.719-1.118-2.752-.087-6.853-.958-7.962.436-1.738 2.186-2.54 6.284-1.765 9.013 1.013 3.567 4.217 5.95 8.679 4.273.86-.323 1.864-.262 2.839-.383-.79 11.746-.79 11.746-9.957 13.081.654 3.62 1.307 7.243 1.7 11.483-7.878-4.361-9.776-7.144-7.381-14.494 2.078-6.377-1.284-11.666-1.685-17.479-.095-1.37-2.528-3.207-4.224-3.728-6.34-1.949-12.662-6.206-19.149.726-1.555 1.662-6.321 1.262-9.252.477-4.693-1.257-9.087-3.631-13.609-5.529-4.793-2.011-7.859-4.823-9.374-10.5-2.514-9.416-4.812-18.284-1.945-28.212 1.949-6.749-3.388-14.015-10.711-17.802-3.123 2.368-5.867 5.961-9.165 6.574-4.288.798-9.038-.64-13.548-1.367-2.904-.468-5.715-1.485-8.602-2.089-8.173-1.709-12.577-6.424-13.651-14.609-.256-1.948-.386-4.102-1.316-5.739-3.259-5.739-3.081-11.073-.153-17.042 2.946-6.006-.4-16.499-5.742-20.642-2.95-2.288-5.987-2.988-8.735.352-5.632 6.845-12.18 7.014-19.584 3.08-1.977-1.05-4.489-1.042-6.692-1.725-13.298-4.12-16.901-10.099-14.315-25.093z" class="C"/><path fill="#fff" d="M278.698 1620.071c-.698-.96-.698-1.849-.698-3.405 4.719-6.409 5.044-6.86.004-10.504-4.51-3.261-4.374-6.775-3.174-11.212 4.752-1.622 9.452-.722 10.397 3.346 1.268 5.459 4.503 7.678 8.794 9.804 4.117 2.04 5.322 5.356 1.861 8.771-3.47 3.425-3.713 7.378-4.037 11.806-.3 4.102-1.885 8.11-3.077 12.841 5.663 2.076 7.49 10.6 16.37 9.919.305-2.715.225-5.346.975-7.713.726-2.29 1.946-5.685 3.601-6.121 2.406-.634 6.362.06 7.941 1.771 3.465 3.755 5.854 8.505 9.055 13.422-2.899 1.45-4.513 2.762-6.288 3.036-3.282.505-7.516-.002-7.837 4.323-.313 4.214.655 8.943 5.442 10.723 3.952 1.47 8.212 2.112 13.154 3.62.819.5.819 1.5.819 1.5-.918 2.433-1.457 5.108-2.828 7.251-3.41 5.329-7.561 6.404-12.255 2.337-4.373-3.789-7.708-4.431-11.652.059-2.291 2.608-5.066 2.768-8.618-.158-1.112-4.291.933-8.701-4.657-10.197.076-3.463-1.053-5.162-4.119-6.009-2.71-1.572-5.29-2.428-7.871-3.283l-.011-9.811c-.224-10.456-1.035-21.007 6.745-30.64-2.893-2.131-5.116-3.768-8.037-5.477z"/><path d="M169.882 121.308c-8.676 1.968-17.324-1.732-26.296.358-4.654 1.084-5.052-4.098-6.518-7.317-3.151-6.92-8.457-8.229-14.181-3.59-.987.8-2.242 1.928-2.374 3.025-1.52 12.561-7.727 24.361-5.311 37.68.638 3.519-2.635 7.746-4.657 12.092-4.033-9.189-3.433-18.982-.964-28.605 1.502-5.853 3.351-11.32.825-17.42-.947-2.287-.94-5.481-.139-7.844.876-2.584 3.776-6.909 4.759-6.644 7.548 2.037 15.747-3.19 22.795 2.076 3.14 2.346 6.082 4.438 9.22.19l-4.355-16.516c-1.857 0-4.029.058-6.196-.017-1.893-.066-4.262.379-5.57-.572-2.529-1.838-5.262-4.196-6.303-6.946-.53-1.401 2.086-5.5 3.882-5.943 3.176-.784 7.991-.986 10 .867 3.812 3.515 7.316 5.42 12.591 6.389 5.463 1.003 9.758 6.474 16.108 6.433.489-.003 1.404.809 1.412 1.253.117 7.131.371 14.286-.251 21.362-.061.693-5.666.899-9.427 1.435-.748 3.06-1.702 6.26 4.074 5.443 2.637-.373 5.35-1.295 6.875 2.812zm414.222 1847.383c.895-.651 2.138-.983 2.854-.513 7.732 5.071 14.155 4.717 20.995-2.46 4.235-4.443 16.718 1.151 17.929 7.545.71 3.746 1.956 5.767 5.861 6.859 3.651 1.021 6.918 3.415 10.835 5.455l6.158-5.704c3.353 4.833 3.13 8.242-1.516 10.114-3.378 1.361-7.748 1.51-11.359.729-4.513-.975-8.099-.568-10.491 3.289-2.349 3.787-3.328 7.884-.203 12.067 1.77 2.37 4.032 5.019 4.319 7.727.825 7.786 5.728 10.6 12.365 12.254 3.189.794 6.163 2.421 9.329 3.343 5.869 1.71 8.734-.887 7.974-6.991-.835-6.702-.835-6.702 7.756-9.712 3.404 5.827 5.905 12.758 13.869 14.33.717.142 1.557 1.433 1.726 2.309 1.565 8.124 9.912 7.899 14.882 11.753 1.206.936 5.061-1.544 8.975-2.895l3.861 7.071c-3.651 4.406-6.934 4.623-11.366 3.536-5.654-1.387-12.083-2.891-16.275 4.762-1.122-1-2.278-2.521-2.1-3.866 1.432-10.812-2.386-18.355-12.612-23.311-6.103 9.592-14.477 9.575-23.861 4.766-1.688-.865-3.846-.814-5.788-1.18-8.95-1.688-12.934-5.886-14.238-15.017-.047-.328.084-.739-.069-.986-5.442-8.717-3.032-17.425-1.145-26.645.833-4.071-2.08-9.705-4.913-13.38-1.329-1.724-7.019-1.657-9.833-.396-12.864 5.768-13.552 5.889-23.921-4.854zm1363.802-1329.48c-2.735-1.669-5.565-4.127-8.541-6.712 1.346-2.677 2.062-4.474 3.091-6.07 2.055-3.184 1.875-6.114-.263-9.204-3.609-5.216-6.451-10.632-6.463-17.37-.004-2.183-1.99-5.656-3.854-6.313-7.329-2.583-15.003-6.284-22.725-1.515-4.503 2.781-7.511 1.538-11.572-1.194-11.239-7.56-16.441-18.3-18.519-32.191-15.419 1.337-21.36-9.636-26.24-22.015-4.997-1.122-11.058.43-14.485-5.974 2.641-.852 5.669-.758 8.577-1.303 9.157-1.716 9.09-1.797 11.193 6.902.368 1.52 1.26 2.949 2.108 4.296.241.383 1.179.327 2.485.635.463-1.36.85-2.826 1.447-4.201 3.268-7.525 10.301-9.006 15.625-2.96 7.185 8.16 13.328 16.72 8.595 28.713-1.03 2.609-.553 5.953-.273 8.912.82 8.692 7.004 13.979 15.844 14.407 8.243.399 16.478 1.896 24.691 1.717 7.391-.161 11.468 4.821 16.058 8.717 1.972 1.674 2.134 5.887 2.423 9.011.236 2.544-1.442 5.461-.728 7.727 1.676 5.324 1.489 10.2.047 15.566-.773 2.878.846 6.399 1.481 10.419m-70.013-97.897c-.769-1.391-1.365-3.802-2.34-3.967-2.215-.374-5.378-.461-6.765.83-2.131 1.984.274 7.213 3.826 8.828 4.081 1.856 5.313-.492 5.279-5.691zM859.458 2244.462c2.289 1.441 4.036 3.344 5.979 5.461 2.34-1.111 4.565-1.846 6.433-3.108 8.652-5.844 11.483-6.092 20.054.243 5.258 3.886 10.028 3.96 16.397-.133l-5.316-9.356c-1.505-2.802-.912-5.349 1.946-6.698 3.477-1.641 6.545.132 6.59 3.5.086 6.413 3.094 10.559 8.718 13.096-.723 2.141-.779 3.711-1.592 4.489-6.306 6.032-5.358 12.7-2.82 20.13 1.556 4.554 1.861 9.648 2.06 14.527.272 6.631.94 13.011 4.547 18.504 1.161 0 2.056.281 2.424-.041 9.028-7.895 12.634-8.182 24.573-2.182 5.835 2.933 11.741 5.737 17.718 8.365 1.397.614 3.593.943 4.777.27 9.474-5.379 20.637-3.664 31.244-7.512.642.626.635 1.723.291 1.842-7.299 2.513-13.367 7.581-21.633 8.438-8.63.896-17.182 2.827-25.41-.639-6.034-2.542-11.55-6.315-16.2-8.924-5.787 2.65-10.547 5.616-15.729 6.987-5.441 1.439-7.907-1.016-8.464-6.761-.766-7.904-1.017-15.876-2.183-23.717-1.002-6.739-2.434-13.537-4.804-19.888-.889-2.383-4.86-4.836-7.601-5.053-5.656-.448-10.253-2.158-14.324-6.022-3.489-3.311-7.042-2.786-10.7.209a21.9 21.9 0 0 1-6.826 3.766c-7.557 2.509-11.131-.711-10.154-9.792zm1435.136-61.05c-1.261-1.865-2.507-4.316-2.51-6.77l-.048-244.609c.001-1.62.505-3.239 1.369-5.446 1.261 1.865 2.507 4.317 2.51 6.77l.048 244.608c-.001 1.62-.505 3.239-1.369 5.446zM512.072 1856.717c.129-1.364.503-1.887 1.489-2.502 3.837 4.235 7.429 8.553 10.584 13.17 4.192 6.135 2.403 14.24-4.05 19.275-3.247 2.534-7.985 3.774-7.687 9.282 2.941 3.467 5.999.841 9.066.703 2.704-.121 5.482 1.404 9.226 2.493-.506.093.242.153.75-.166 10.448-6.557 11.778-6.447 20.458 1.943 3.545 3.427 6.59 7.471 12.292 7.697 1.164.046 3.245 2.146 3.209 3.243-.255 7.745 3.845 15.572-.859 23.69-1.783-4.237-3.036-8.923-4.234-13.624-.409-1.602-.114-3.852-1.102-4.763-6.621-6.1-12.818-12.811-21.256-17.971l-1.93 4.705c-2.498 6.658-7.75 8.628-12.658 3.729-3.053-3.047-5.956-3.802-9.661-3.62-5.267.258-6.863-3.196-7.593-7.435-1.561-9.06 2.647-17.28 12.246-22.738l-8.29-17.111zm1146.449-1519.2c-4.242-3.913-6.986-8.846-14.893-6.661-2.687.743-7.752-4.312-10.584-7.68-2.87-3.414-.834-6.539 5.888-10.98-3.666-2.343-7.19-4.945-11.037-6.917-2.155-1.104-4.862-1.663-7.29-1.578-3.635.127-7.255 1.086-10.266-3.061 6.535-.047 13.402.74 20.291 1.044 2.876.127 5.847-.567 8.687-1.251 4.12-.993 7.242.355 9.457 3.697 2.523 3.807 4.982 7.69 7.049 11.754 1.161 2.283 1.768 4.96 2.1 7.527.584 4.514.767 9.081.596 14.108zm569.402 567.767c-5.339-1.474-10.574-3.734-16.769-3.732-2.597.001-6.521-2.95-7.555-5.49-3.628-8.915-10.571-14.68-17.499-21.379 5.394.428 10.888 1.539 16.783 2.732 5.744-4.756 12.144-7.104 19.917-3.545 6.956 3.184 10.473 10.436 5.562 15.948-4.981 5.59-3.873 9.718-.439 15.467m-6.528-28.381c-2.936-.231-5.972-1.035-8.782-.545-3.337.582-6.505 2.641-5.758 6.725.731 3.997 3.981 5.973 7.811 6.696s7.233-.036 9.741-3.387c2.662-3.557.949-6.142-3.011-9.489zm-104.898-83.299c-9.056-6.449-9.81-7.742-14.027-22.94-15.782 3.103-28.819-2.284-40.172-14.053 1.891-.056 4.288.101 6.234 1.121 9.879 5.176 19.709 6.643 30.147 1.366 1.906-.963 5.688-.734 7.208.571 3.444 2.957 6.257 6.767 8.814 10.575.892 1.328 1.06 4.186.218 5.456-3.798 5.73-2.897 10.404 2.057 14.8.452.401.032 1.784-.48 3.106zm-569.97-560.102c-5.666-3.77-4.81-9.716-4.402-15.202.449-6.041-.911-11.434-5.079-15.458-2.36-2.28-6.409-4.472-9.359-4.09-4.396.57-5.983 4.587-4.489 9.187.081.251-.791.812-2.234 2.216-5.422-9.638-10.483-19.593-20.859-25.467 7.041.845 13.978 2.782 18.023 9.192 1.329-.37 2.155-.346 2.54-.746 3.101-3.229 5.448-8.906 10.929-6.657 5.764 2.365 10.933 6.652 12.228 13.289 1.254 6.429 1.538 13.051 2.161 19.597.432 4.54.718 9.094.542 14.139zm739.475 739.67c-6.427-3.548-7.305-6.092-4.26-11.788 1.094-2.046 2.598-3.915 3.421-6.054 1.846-4.799.82-9.306-2.372-10.615-4.564-1.871-7.694.472-10.064 4.104-1.268 1.942-2.023 4.233-3.378 6.098-.835 1.15-2.365 1.796-3.953 2.934-.53-1.69-1.165-2.643-1.042-3.487 1.582-10.899-2.827-16.812-13.507-18.427-2.778-.42-5.422-1.725-8.487-3.281 1.942-.851 4.499-.471 6.491-1.358 4.039-1.799 6.774-.588 9.782 2.17 4.109 3.767 8.108 5.56 14.077 1.73 6.059-3.888 10.541-1.002 13.893 5.511 3.402 6.608 4.296 12.948 1.69 20.03-1.345 3.654-1.562 7.724-2.29 12.433z" class="C"/><path d="M452 1824.833c2.761-4.002 5.858-6.129 10.356-4.076l6.547 18.813 9.784.431c8.641.376 11.296 5.153 7.254 13.049-.592 1.157-1.182 2.315-1.857 4.211-1.584.739-3.084.739-5.642.13-4.191-4.194-7.295-7.806-10.47-11.354-1.707-1.908-3.313-4.016-5.359-5.484-3.369-2.419-7.058-4.392-10.613-6.552v-9.167z" class="E"/><path d="M1497.892 183.3c-7.153-.314-10.866-4.512-11.944-11.753-1.224-8.227-1.494-8.062-9.524-9.67-2.21-.443-4.216-1.911-8.558-3.974l10.835-5.276c3.803-1.669 6.031-4.195 4.953-8.56-.98-3.972-3.193-6.488-7.746-6.074-3.942.358-7.899.551-11.34-.1-4.998-1.963-9.997-3.927-15.782-5.891.026-5.06 3.528-4.457 6.707-3.124 6.901 2.893 14.049 3.613 21.367 3.088 5.48-.393 8.987 1.489 9.813 7.252.371 2.59 1.791 5.432 1.132 7.692-2.057 7.049.505 13.275 1.479 19.992 1.009 6.955 4.04 11.35 8.607 16.398zm506.106 511.877c-7.938-5.907-10.207-13.487-7.054-22.871.315-.937.809-1.815 1.235-2.713 1.915-4.041 3.45-8.403-.211-11.968-3.564-3.471-7.41-.753-11.007.847-1.195.531-2.436.96-4.217 1.654-1.493-1.576-2.859-3.358-4.553-4.739-4.295-3.502-8.548-6.117-14.755-6.637-5.245-.439-10.164-4.765-15.332-8.061 6.202 1.099 12.177 3.677 19.068 3.803 3.865.071 7.587 3.535 11.536 5.044 2.586.988 5.948 2.404 8.106 1.525 3.986-1.625 8.511-5.474 11.67-1.778 3.148 3.683 3.743 9.549 5.457 14.457-6.329 10.216-1.39 20.411.057 31.436zm-403.429-415.694c-4.27-1.393-7.971-3.304-11.976-5.371l4.982-17.822c.794-3.057.615-6.789-2.867-7.254-2.02-.269-4.946 2.31-6.607 4.317-1.979 2.391-3.04 5.543-4.494 8.355-7.75-1.763-4.662-8.619-7.523-12.957 3.71.033 6.875.752 10.978-1.895 9.638-6.218 16.656-1.822 16.97 9.548.208 7.525.727 15.041.537 23.078zm173.989 182.016c-1.877-3.768-2.094-9.054-4.827-12.02-2.74-2.974-8.008-3.597-12.12-5.364-.419-.18-.504-1.137-1.09-2.593 2.262-1.382 4.586-3.022 7.099-4.284 3.546-1.781 6.473-4.511 5.849-8.346-.391-2.397-3.03-5.192-5.378-6.335-3.876-1.886-6.963.893-9.375 3.792-2.282 2.743-4.29 5.713-7.319 9.796l-3.382-17.336c4.423.037 8.489 1.498 13.478.034 3.927-1.152 10.339-.848 12.792 1.633 3.683 3.725 5.466 9.846 1.73 15.53-2.243 3.412-1.734 6.344.449 9.999 2.627 4.398 5.023 9.438 2.092 15.495zm-58.063-65.899c-5.034-3.056-9.572-6.512-14.885-10.557 2.047-2.852 4.298-5.563 6.057-8.564 1.628-2.779 3.803-5.976.413-8.933-3.457-3.015-6.011-.477-8.497 1.866l-7.257 6.628c-5.272-3.174-6.203-8.238-8.254-13.328 2.61.415 5.292 1.542 6.847 2.196 5.386-1.837 9.818-4.395 14.396-4.69 9.195-.592 14.871 8.232 9.263 15.206-5.45 6.777-4.326 10.598 1.528 15.309.906.729.62 2.94.39 4.865zM2060 753.085c-8.734-6.451-8.479-7.328-4.395-16.868 1.958-4.575 2.32-10.23 1.879-15.263-.211-2.407-3.823-6.177-6.164-6.392-4.95-.453-7.639-3.004-10.28-6.457-2.363-3.09-5.539-4.566-10.268-4.105.448-1.3 1.901-3.869 2.851-3.695 6.724 1.233 13.87 1.949 19.882 4.88 10.759 5.246 8.777 15.884 8.323 25.371-.345 7.217-1.2 14.409-1.829 22.528z" class="C"/><path fill="#fff" d="M336 1674l6.487-.572c1.39-3.457 2.231-6.688 3.963-9.334.758-1.157 3.425-1.67 5.06-1.416.966.15 2.243 2.363 2.259 3.663.027 2.204-.537 4.537-1.368 6.609l-12.181 29.581c-.238.58-.14 1.299-.209 2.711-4.865-3.18-5.47-5.202-2.254-12.454 2.461-5.551 3.655-10.616-1.424-16.631C336 1675 336 1674 336 1674z"/><path d="M376.75 1726c-8.357-1.528-12.01-5.356-12.409-12.216-.229-3.942 2.536-6.54 7.371-5.571 4.754.953 9.256 3.166 15.047 5.251-1.713 4.128-3.152 7.595-4.675 11.799-1.584.737-3.084.737-5.334.737z" class="E"/><path d="M2172.566 861.513c-.885-1.565-1.77-3.717-1.427-5.651 1.542-8.703 1.401-9.256-6.025-13.338-2.274-1.25-4.505-2.58-7.063-4.05.636-6.589 11.138-11.861 2.267-19.838 5.558-4.143 7.125 1.278 7.24 4.334.21 5.608 2.676 9.892 5.063 14.53 3.946 7.67 4.817 15.588-.054 24.013z" class="C"/><path fill="#fff" d="M451.473 1834.423c4.082 1.738 7.771 3.711 11.14 6.129 2.046 1.469 3.652 3.577 5.359 5.484 3.175 3.548 6.279 7.16 9.72 11.354-2.071 1.018-5.639 2.63-6.637 1.642-6.649-6.578-16.244-10.219-20.059-19.574-.54-1.324-.059-3.065.477-5.036z"/><g class="C"><path d="M1819.855 477.26c-4.557.164-7.1 2.653-8.899 6.689-1.291 2.896-2.486 6.375-6.856 5.517-.561-.491-1.369-.842-1.47-1.337-2.276-11.156-2.262-11.151-13.772-12.317-.626-.063-1.219-.449-2.343-1.248 3.167-1.016 7.101-2.506 10.476-1.688 5.687 1.379 10.959 3.529 17.015 1.394 1.456-.513 3.779 1.434 5.849 2.989zM292 1676c5.58.788 3.536 5.198 4 9.209-1.523 1.34-3.127 1.73-4.555 2.464-7.16 3.674-11.695 2.132-12.87-5.554-.713-4.668.746-9.667 1.327-15.318 2.679.055 5.259.911 7.222 2.576-6.17 2.704-5.648 7.079-4.359 11.209.421 1.349 2.86 2.069 4.376 3.076L292 1676zm716.072 628.719c6.748-2.333 8.315 5.497 13.156 7.134 2.617-3.464 4.961-6.569 8.039-9.763.726 2.864.893 5.831.674 8.769-.442 5.921-3.3 8.151-9.166 6.922-6.728-1.41-10.843-5.75-12.704-13.062zM2155.476 817.43c-4.729 3.601-9.981 6.633-16.589 10.446-5.046-3.783-10.866-8.145-16.786-13.192 9.144 2.353 18.361 5.235 28.185 1.471 1.278-.489 3.097.435 5.19 1.274zm-324.939-307.879c-5.074-3.971-8.227-8.402-3.949-15.083 3.473-5.422-1.229-9.215-4.281-13.843 9.232 1.286 12.342 6.684 9.859 15.364-1.183 4.137-.779 8.728-1.63 13.563zM565.448 1946.484c1.683 1.85 3.553 4.108 3.802 6.532.686 6.706 4.58 10.737 10.355 14.431-1.755 3.362-4.02 2.588-6.292.742-6.77-5.498-9.947-12.428-7.864-21.706zm1729.144-63.068c-1.259-2.823-2.422-6.222-2.483-9.64-.111-6.196.435-12.405 1.299-19.192 1.259 2.823 2.423 6.222 2.484 9.64.111 6.196-.436 12.405-1.3 19.192zM1425.821 123.21c-8.765.518-17.71.246-27.238-.618 7.178-3.592 20.828-3.385 27.238.618zm812.098 806.057c-7.729-.932-8.152-7.825-9.77-13.644-.684-2.458-.137-5.259-.149-8.763 1.319.652 3.887 2.291 3.747 3.652-.728 7.072 2.803 12.456 6.172 18.755zm56.867 986.556c-.786-7.209-.786-14.595-.786-22.902.919-.568 2.547-.356 2.65.16 1.516 7.59 3.546 15.258-1.864 22.742zM1683.847 361.252c-6.06.783-12.468 1.537-17.51-4.609 5.485 1.158 12.163-.404 17.51 4.609zm342.046 342.076c-2.132 1.101-4.393 1.44-6.605 1.98-4.043.987-7.03-.305-9.176-4.604 4.479.601 9.042 2.084 13.862.081.294-.122 1.194 1.214 1.919 2.544zm-286.059-286.097c-4.939-.009-10.671 2.806-15.464-2.56 4.8.481 10.735-3.231 15.464 2.56zM109.506 168.402c2.155 3.34 3.816 7.081 4.985 11.211-5.055-2.052-5.501-6.326-4.985-11.211zm1334.393-37.085c-3.832-1.528-7.765-3.739-11.798-6.634 3.832 1.528 7.765 3.739 11.798 6.634zm-1262.319-9.84c-1.967.872-4.354 1.221-7.16 1.047 1.967-.872 4.354-1.221 7.16-1.047zM1832.481 521.64c-1.469-2.066-2.456-4.492-2.962-7.279 1.469 2.066 2.456 4.492 2.962 7.279zm-112.482-112.392c-1.328-1.449-2.658-3.651-3.994-6.55 4.314-.37 3.958 2.834 3.994 6.55zM1563.634 245.5c-1.39.834-3.146 1.167-5.268 1.001 1.39-.834 3.145-1.167 5.268-1.001zM2116.5 805.634c-.834-1.39-1.167-3.146-1.001-5.268.834 1.39 1.167 3.146 1.001 5.268zm-454.51-454.342c-1.289-.864-2.588-2.435-3.938-4.649 2.885-.513 4.014 1.187 3.938 4.649z"/><use xlink:href="#B"/><use xlink:href="#B" x="-456" y="-458"/><use xlink:href="#B" x="-340" y="-342"/><path d="M2007.917 699.358c-1.196-.264-2.474-1.17-3.835-2.717 1.196.264 2.474 1.17 3.835 2.717zM335.71 1673.548c.29.452.29 1.452.29 1.952-.889.5-1.778.5-3.333.5-.667 0-.667-1-.667-1.5 1.14-.802 2.28-1.103 3.71-.952z"/><use xlink:href="#B" x="58" y="58"/><path d="M2292.458 989.658c-1.097-.594-1.737-1.53-2.417-3.062 1.769-.228 4.131-.345 2.417 3.062zm-720.519-742.244c-1.05.247-2.161-.092-3.605-.923 1.492-2.71 2.728-2.171 3.605.923z"/></g><path d="M572.923 1868.117c-1.38-.327-3.396-.193-4.027-1.063-2.321-3.2-4.182-6.733-6.707-10.961 1.88-1.195 3.545-3.008 5.459-3.326 5.546-.923 11.191-1.733 16.798-1.734l1247.919-.062c18.615.001 18.192 1.231 18.191-17.773l-.029-1233.92c0-6.333.124-12.671-.094-18.997-.33-9.581-1.847-11.055-11.18-11.091l-48.997-.023-1216.921.013c-2.993 0-5.987-.176-9.299-.93 3.233-1.158 6.783-2.071 10.336-2.088l76.976-.066 1179.634-.007c3.33 0 6.717.267 9.977-.24 4.544-.707 6.06-4.176 3.586-7.99-1.031-1.589-2.936-2.611-4.84-4.364-2.153-2.207-3.911-3.941-5.659-6.156l.036-2.378c2.195 1.29 4.751 2.206 6.53 3.927l79.448 77.318 166.137 166.16 60.86 61.929 47.818 46.845 42.305 42.245 41.66 41.513c4.61 4.507 6.736 9.431 6.621 15.948-.298 16.993-.098 33.994-.097 50.992l-.025 785.912c0 3.638-.382 7.276-1.712 10.865-1.313-4.023-1.661-7.996-1.661-11.97l-.025-827.351-.037-8.992c.001-3.526-2.203-4.497-5.367-5.084a16.85 16.85 0 0 1-.439-2.248c-1.954-2.731-3.848-4.842-5.82-7.063-.076-.111-.298-.263-.567-.841l-21.444-21.158c-.073-.105-.281-.251-.548-.83l-15.614-15.672c-.849-.905-1.409-1.352-2.295-2.353l-9.773-9.831-8.205-8.192-7.802-7.731-35.923-36.279c-1.325-1.475-2.517-2.368-4.075-3.794l-8.22-8.172-13.747-13.731-6.258-6.278-15.702-15.842c-2.868-2.896-5.365-5.262-7.994-8.207-1.317-1.469-2.5-2.359-4.061-3.788l-10.236-10.158-11.63-11.652c-.825-.939-1.367-1.414-2.038-2.511-1.993-2.128-3.857-3.634-6.095-5.679-3.518-3.569-6.662-6.6-9.94-10.209-1.316-1.468-2.498-2.357-4.065-3.798l-23.929-24.285c-5.959-6.118-11.785-11.585-17.916-17.529-.893-.944-1.479-1.411-2.393-2.418l-13.799-13.674-21.884-22.386c-4.657-4.818-9.181-8.989-14.088-13.712l-21.918-22.251c-4.636-4.839-9.143-9.028-14.023-13.746-2.851-2.929-5.33-5.328-7.945-8.368-5.677-7.836-11.246-15.001-20.007-19.519-.823-.872-1.354-1.314-2.012-2.38-1.987-2.095-3.847-3.566-5.775-5.129-.067-.093-.252-.228-.311-.863-1.888-2.164-3.718-3.694-5.849-5.658-.84-.882-1.379-1.331-2.058-2.421-5.789-7.695-11.057-15.156-19.819-19.067-.091-.084-.316-.186-.602-.767-3.907-3.633-7.529-6.685-12.435-10.819-.564 5.446-1.279 9.315-1.312 13.19l-.058 46.687-.067 1192.5c-.001 7.257-1.194 14.508-1.447 21.775-.088 2.532.984 5.104 1.149 8.172-2.015.856-3.653 1.198-6.131 1.387-6.085-.738-11.33-1.833-16.575-1.834l-1191.299-.079c-18.989 0-37.98-.156-56.965.12-4.75.069-9.479 1.536-15.468 2.578l3.809 9.415z" class="B"/><path fill="#f3c347" d="M573.546 1868.781c-1.696-3.315-2.768-5.966-4.432-10.079 5.989-1.042 10.718-2.508 15.468-2.578l56.965-.12 1191.299.079c5.245.001 10.49 1.097 16.479 2.588.672 2.937.6 4.966-.393 7.058l-5.92.101-1206.833.003c-13.998 0-27.996-.051-41.994.033-2.518.015-5.033.577-9.219 1.092 1.624 3.567 2.157 6.599 3.941 8.368l47.5 46.419c9.42 9.377 18.081 19.518 27.514 28.881l46.409 44.996 39.33 39.35c5.335 5.444 9.916 11.634 15.317 17.005 6.111 6.078 12.931 11.438 19.13 17.433 9.514 9.202 18.761 18.68 28.119 28.042l43.61 43.7 33.594 35.147 50.004 48.467c4.249 4.163 7.652 9.18 11.816 13.44l30.088 30.07c5.912 5.884 12.278 13.522 20.464 12.854 9.097-.742 17.723 1.05 26.582 1.047l1217.832-.181c5.921-.001 11.843-1.054 18.357-1.112 4.853.695 9.113.885 13.296 1.85-3.076 6.265-8.353 5.442-13.263 5.447l-85.982.009c-390.251.003-780.502.013-1170.753-.058-5.244-.001-10.487-1.012-15.731-1.552l-12.983-12.163-51.385-51.206-6.534-6.75-49.55-49.31-6.39-6.594-11.531-11.548c-.485-.443-.97-.885-2.424-2.365l-17.65-17.49-6.411-6.619-59.534-59.362-10.523-10.698-24.416-24.015c-.582-.512-1.165-1.024-2.736-2.727l-20.407-20.624-19.809-19.544-44.183-44.45-18.458-18.634-13.505-13.313-18.455-18.634-9.689-9.46-12.017-12.294z"/><path d="M131.346 1424.273c-4.923-2.636-6.795-6.559-6.531-12.28.446-9.642.134-19.319.134-28.982l.029-1236.467c0-3.309-.06-6.725.7-9.902 1.301-5.436 2.97-5.822 9.811-1.891 1.171 4.191 1.858 7.239 1.732 10.622-5.573 4.27-3.361 9.668-3.363 14.342l-.047 1243.605c.001 6.919.906 13.837.747 20.752-1.499.064-2.355.132-3.212.2z" class="B"/><path d="M2276.688 995.754c3.016.051 5.22 1.021 5.219 4.547l.037 8.992.025 827.351c0 3.974.348 7.947 1.07 12.515a156.06 156.06 0 0 1 .491 24.522c-.99 3.115-1.47 4.739-1.471 6.363l.047 302.593c.002 2.448 1.247 4.895 1.912 7.342.088 5.416.176 10.832-.457 17.686-1.517 7.806-3.229 14.231.464 20.317.085 8.066.17 16.132-.473 25.67-.994 6.26-1.33 11.044-1.497 15.835-.103 2.946.15 5.95-4.086 6.701-.946-.812-1.4-1.363-1.848-2.86l1.932-31.673c.555-12.481-2.534-24.969-.021-37.474.252-1.256-.125-2.646-.254-3.969-.541-5.586-1.542-11.168-1.575-16.757l-.075-82.944v-81.946l-.076-82.944.22-82.491-.148-846.437c0-3.647.368-7.293.565-10.94z" class="F"/><path d="M1840.102 553.966c1.508 1.28 3.413 2.302 4.444 3.891 2.475 3.814.958 7.283-3.586 7.99-3.259.507-6.646.24-9.977.24l-1179.634.007c-25.659 0-51.318-.058-76.976.066-3.554.017-7.103.93-11.146 1.754-1.33 2.131-2.169 3.937-4.323 5.977-2.221.174-3.126.115-4.253-.781 1.626-10.023-3.135-16.723-8.874-22.834-2.683-2.858-6.329-4.793-9.14-7.553l-33.759-33.77c-1.738-1.771-2.733-4.271-3.458-6.384 5.567 4.44 10.637 8.705 15.441 13.253 5.265 4.985 10.254 10.259 15.418 15.352l13.569 13.143c1.889 1.827 4.284 3.355 5.575 5.537 5.674 9.59 13.644 12.697 24.882 12.667l394.787-.231 853.541.001c5.564 0 11.128-.327 16.943-.509l.526-7.815z" class="D"/><path d="M2278.459 2276.448c3.745-1.011 3.492-4.015 3.595-6.961.167-4.791.503-9.575 1.365-14.914 1.016 8.964 2.114 18.517 1.602 27.983-.308 5.697-5.985 7.608-11.096 8.262-3.937.503-7.981.191-11.978.191l-1247.198.011c-5.663 0-11.352.295-16.976-.177-2.217-.186-4.29-2.1-6.031-3.743 5.641.023 10.884 1.034 16.128 1.035l1170.753.058 85.982-.009c4.91-.005 10.187.818 13.322-6.141l.533-5.594z" class="B"/><path d="M138.034 145.037l-2.12-9.808c4.255-.858 8.571-1.22 12.886-1.221l1258.513-.012c2.331 0 4.661.104 7.919.76.927.6.985 1.263.332 1.802-3.953.772-7.252 1.21-10.552 1.21-388.331.018-776.662.003-1164.993-.007-28.333-.001-56.666.002-84.999.062-3.477.007-6.953.383-11.423.646 2.325 5.23 4.022 9.046 5.118 12.857-3.96-2.099-7.321-4.195-10.681-6.29zm420.76 440.679c.416 3.247 1.197 6.494 1.197 9.741l.034 1185.394c0 2.653-.261 5.306-1.498 8.594-1.557.585-2.016.536-2.538-.442l-.104-10.919.006-1174.028c0-5.994.095-11.987.836-18.058l2.066-.282zm-427.268 839.238c.676-.75 1.533-.818 3.722-.61 12.17 10.917 23.053 21.509 33.832 32.208l45.104 45.019 69.058 69.174c6.072 6.128 11.407 12.991 17.538 19.055 9.165 9.066 18.925 17.531 28.089 26.599l42.679 43.093 67.045 66.627c11.448 11.511 22.37 23.543 33.645 35.228 6.246 6.473 12.736 12.71 19.106 19.064l37.881 37.731c7.054 6.897 12.921 15.299 22.738 19.547.716 3.606 1.449 6.537 2.181 9.467-2.466-1.388-5.398-2.307-7.329-4.231l-156.318-156.184-200.726-200.759-51.535-51.691c-2.518-2.549-4.371-5.754-6.711-9.338zm1347.38-1235.515l49.4 49.497 6.575 6.504 112.79 113.444c.392 1.621.378 2.223-.319 2.825-3.245-2.048-6.032-3.873-8.34-6.178l-211.387-211.332c-2.287-2.29-3.93-5.223-5.338-8.002l1.602-.445c1.916 1.496 3.831 2.993 6.559 5.421l14.495 14.272 23.393 23.522 10.571 10.472z" class="D"/><path d="M2284.526 2189.341c-1.175-1.809-2.419-4.256-2.421-6.704l-.047-302.593c0-1.624.481-3.248 1.342-5.445 1.116 2.28 2.072 5.132 2.074 7.986l.044 300.188c0 1.976-.315 3.953-.992 6.568z" class="B"/><path d="M1662.945 373.474l106.712 107.459c.402 1.614.388 2.216-.309 2.813-2.541-1.337-4.629-2.439-6.227-4.033l-108.363-108.405c-1.964-1.973-2.997-4.874-4.013-7.356l2.223-.058 5.294 5.022 4.683 4.558z" class="D"/><path d="M767.365 2063.618c19.907 19.011 39.431 38.465 59.188 58.264-1.47-.025-3.742.181-4.789-.853l-53.395-53.391c-.825-.832-.94-2.369-1.004-4.02z" class="B"/><path d="M1833.649 544.359c.429 1.233.42 1.866-.285 2.954-1.829-.189-3.175-.622-4.069-1.51l-51.986-51.946c-1.49-1.504-2.072-3.906-2.633-5.903l2.18-.051 56.793 56.455z" class="D"/><path d="M927.381 2223.646c17.232 16.337 34.075 33.108 51.148 50.223-1.46-.018-3.716.195-4.755-.828l-45.41-45.402c-.82-.828-.931-2.357-.983-3.993zm-56.061-56.039c16.556 15.65 32.746 31.755 49.169 48.19-1.198.208-3.194.658-3.978-.117l-44.733-44.852c-.597-.604-.564-1.83-.458-3.221zm-226.014-226.028c14.859 14.04 29.353 28.542 43.994 43.409-.914.464-2.477 1.07-2.962.588l-40.595-40.759c-.594-.603-.549-1.836-.437-3.238z" class="B"/><path d="M551.128 1877.358c6.596-1.744 9.872 2.371 12.932 6.101 1.12 1.365 1.479 4.711.564 6.024-1.008 1.446-4.305 2.703-5.862 2.106-5.371-2.061-10.536-4.765-15.508-7.687-1.309-.769-1.637-3.206-2.415-4.877 1.919-.589 3.807-1.351 5.769-1.705 1.227-.221 2.565.173 4.519.039zm-19.126-17.431c.1-4.082-.486-7.874 4.576-7.73 3.682.105 7.587 4.905 7.026 9.244-.443 3.428-1.874 6.728-2.936 10.318-7.488-.656-8.82-5.255-8.666-11.832z" class="C"/><path d="M554.282 1847.812c-.869-3.585-1.601-6.516-2.075-10.785 1.466-3.256 2.674-5.174 4.414-7.072l2.645.129c.449 5.608 1.106 11.209 1.277 16.826.122 3.999-1.451 4.331-6.261.902zm177.985 180.967c8.386 7.381 16.233 15.078 24.314 23.126-.638.523-1.978 1.15-2.316.803-7.579-7.806-15.049-15.719-21.999-23.929zm-22.964-23.204c6.834 6.014 13.307 12.491 20.002 19.286-.226.712-.99 1.509-1.076 1.442-7.411-5.814-15.014-11.464-18.926-20.728zm124.016 124.034c5.933 5.032 11.494 10.516 17.356 16.312-.566.511-1.916 1.171-2.23.842-5.243-5.494-10.356-11.111-15.126-17.154z" class="B"/><path d="M559.553 1829.202c-.992.846-1.696.81-3.002-.158-.567-8.28-.531-15.628.193-23.051l2.059-.277.751 23.486z" class="D"/><path d="M613.332 1909.62c4.601 3.693 8.827 7.836 13.287 12.337-7.516-.185-10.581-6.045-13.287-12.337zm831.805-1754.776c-4.755-3.846-9.316-8.293-14.174-13.143 7.762.319 11.237 6.236 14.174 13.143zm839.385 2072.532c-4.192-5.481-2.48-11.906-1.09-18.817.926 5.709 1.258 11.96 1.09 18.817zm-1431.143-77.911c3.912 3.063 7.439 6.58 11.193 10.439-6.833.472-9.256-4.699-11.193-10.439zM558.824 1804.86c-.479.923-.935.991-2.632.577-2.102-5.579-3.546-10.72-.14-15.506l2.065.251c.702 4.676.715 9.249.707 14.678zm26.407 76.701c3.292 2.375 6.251 5.234 9.434 8.448-6.053 1.12-7.908-3.423-9.434-8.448zm893.87-1692.723c-3.454-2.571-6.713-5.742-10.253-9.343 6.153-.716 8.667 3.585 10.253 9.343zM558.818 584.903c-.483.882-.941.95-2.639.542-1.262-4.151-1.284-7.825-1.306-11.499l3.397.273c.645 3.353.609 6.612.548 10.684zm1218.187-97.596c-.728.613-1.307.626-2.726.201-1.976-1.543-3.113-2.65-4.249-3.757l.055-2.244c4.094-.718 5.688 2.108 6.92 5.8zm-241.922-242.453c-2.139-1.273-4.076-3.132-6.268-5.387 3.948-1.2 5.946.847 6.268 5.387zm-111.362-109.673c-.188.671-.544.771-2.128.997-2.611.032-3.994-.063-5.377-.158l-.092-.992c2.426-2.677 4.913-2.713 7.596.152zm229.369 228.136c-.712.599-1.303.614-2.724.261-1.331-.865-1.832-1.367-2.334-1.869l.052-2.241c1.717.8 3.422 2.036 5.006 3.849zm10.041 9.6c-1.494-.661-2.801-1.879-4.339-3.447 2.73-1.288 4.219-.067 4.339 3.447z" class="B"/><path d="M357.916 1726.023c1.461.028 2.344-.197 2.723.142 1.743 1.561 3.345 3.28 4.998 4.942-2.559 1.589-4.982 3.994-7.73 4.453-1.597.267-4.663-2.226-5.394-4.122-1.351-3.504.868-5.437 5.403-5.414zm-122.7-114.022c-.127 5.365-.202 11.018-4.311 15.641-4.545-1.327-7.392-3.911-6.662-8.528.871-5.511 4.931-7.398 10.973-7.112zm1.353-.071c.036-.952.641-1.973 1.246-2.994l1.26 1.092c-.646.611-1.291 1.222-2.506 1.902zm55.421 63.362c-1.61 3.262-3.229 5.816-4.849 8.37-1.516-1.008-3.955-1.727-4.376-3.076-1.289-4.13-1.811-8.505 4.488-10.492 3.684.036 4.813 1.736 4.737 5.198zM1877.926 542.09c0 4.423-1.232 6.77-5.313 4.915-3.552-1.615-5.957-6.844-3.826-8.828 1.387-1.291 4.55-1.203 6.765-.83.975.164 1.572 2.576 2.374 4.743zm344.104 335.273c3.326 2.887 5.038 5.472 2.376 9.029-2.508 3.351-5.914 4.109-9.741 3.387s-7.08-2.698-7.811-6.696c-.747-4.084 2.421-6.143 5.758-6.725 2.81-.49 5.846.314 9.417 1.005z" class="E"/><path fill="#feb103" d="M1647.352 361.709c1.182.501 1.683 1.003 2.564 1.88 1.846 2.844 2.879 5.745 4.843 7.718l108.363 108.405c1.598 1.594 3.686 2.696 6.227 4.033 1.818 1.113 2.955 2.22 4.489 3.774 1.401 2.432 1.983 4.834 3.472 6.338l51.986 51.946c.894.888 2.24 1.321 4.059 1.99 2.441 1.759 4.199 3.493 6.352 5.7.242 2.762.088 5.05-.13 8.287-5.814.182-11.378.509-16.943.509-284.514.017-569.027.004-853.541-.001-131.596-.002-263.192-.121-394.787.231-11.238.03-19.209-3.077-24.882-12.667-1.291-2.182-3.686-3.71-5.575-5.537l-13.569-13.143-15.418-15.352c-4.803-4.548-9.874-8.813-15.88-13.903-3.986-3.427-6.918-6.155-9.738-9.435-4.115-4.805-8.343-9.058-12.956-13.796-.676-.779-.967-1.073-1.11-1.943-4.674-6.481-8.553-13.434-17.125-16.429-1.961-1.584-3.445-2.446-4.82-3.859-4.676-4.904-9.46-9.256-14.628-14.282-2.703-3.419-5.022-6.164-7.288-9.498-7.931-8.988-15.702-17.604-23.958-25.728-9.447-9.297-19.579-17.902-28.944-27.277-9.836-9.846-19.026-20.335-28.715-30.333-1.876-1.935-4.749-2.903-7.526-5.039-1.978-2.09-3.593-3.46-5.034-5.416-1.168-2.417-2.314-4.44-3.886-6.045l-22.239-22.302-35.857-35.766c-1.754-1.725-4.241-2.705-7.28-4.476-1.496-.722-2.101-.997-2.606-1.849-1.878-3.549-3.452-6.914-5.902-9.425l-36.253-36.281c-1.742-1.713-4.216-2.683-7.01-4.426-2.055-1.975-3.451-3.521-4.795-5.653-.659-1.687-1.202-2.954-2.107-3.863l-48.723-48.707c-1.524-1.509-3.795-2.264-6.361-3.776-2.031-1.933-3.419-3.458-4.807-4.984l-5.718-12.861c4.47-.263 7.946-.638 11.423-.646l84.999-.062 1164.993.007c3.299 0 6.599-.437 10.552-1.21 2.036-.445 3.419-.35 5.495-.236 2.636 2.652 4.279 5.586 6.566 7.875l211.387 211.332c2.308 2.305 5.096 4.13 8.34 6.178z"/><path fill="#f9413f" d="M2276.539 995.216c-.048 4.184-.417 7.83-.417 11.477l.148 846.437-.22 82.491.076 82.944v81.946l.075 82.944c.033 5.588 1.034 11.171 1.575 16.757.128 1.323.506 2.713.254 3.969-2.514 12.505.576 24.993.021 37.474-.456 10.25-1.271 20.485-2.548 31.348-2.801-1.431-5.036-3.428-7.153-5.545l-197.804-197.825-201.444-201.399c-3.279-3.281-6.237-6.882-9.3-11.264l.093-9.927.001-1235.636.009-14.995c.125-9.474.155-9.473 10.102-10.804 0 0 .225.102.254.88 5.445 6.681 10.801 12.642 16.354 18.414.687.715 2.419.425 3.667.6.539.448 1.078.897 1.824 2.48.737 4.441 2.627 5.981 6 5.592 0 0 .185.136.187.92.649 4.081 2.624 5.527 5.968 5.063.531.442 1.062.883 1.808 2.463 5.631 7.077 10.987 13.074 16.541 18.881.681.712 2.427.406 3.679.572 2.479 2.399 4.958 4.798 7.721 8.435 3.478 7.022 6.912 12.537 14.239 13.689 7.135 7.016 14.271 14.033 21.717 22.309 3.533 7.014 6.935 12.565 14.294 13.65 7.13 7.056 14.26 14.112 21.645 22.478 2.312 8.353 5.739 13.824 14.231 13.474.587.467 1.174.935 1.918 2.611 2.827 9.441 10.272 16.143 18.199 17.447 7.803 7.695 15.607 15.389 23.739 24.308 1.638 2.05 2.946 2.877 4.255 3.703 3.144 3.031 6.288 6.062 9.737 10.34.92 4.599 2.856 6.13 6.294 5.592.542.475 1.084.951 1.772 2.629 1.429 7.762 4.584 12.14 12.086 11.458 3.18 3.025 6.36 6.049 9.861 10.288 1.631 2.04 2.94 2.867 4.25 3.693 2.497 2.366 4.993 4.732 7.772 8.355 3.092 8.773 6.681 15.435 16.119 15.67 1.863 1.728 3.726 3.455 5.817 6.46 2.229 8.38 5.772 13.729 14.18 13.545 2.511 2.362 5.022 4.724 7.854 8.293 1.632 2.039 2.943 2.871 4.254 3.703 11.809 11.709 23.618 23.417 35.679 36.452.304 6.744 3.318 8.338 8.218 7.499 2.511 2.378 5.021 4.756 7.787 8.43.694 7.515 4.031 10.269 10.212 9.623.561.447 1.122.894 1.857 2.534 2.673 9.033 6.993 14.859 15.994 15.517 0 0 .209.146.19.968 3.333 10.326 10.874 15.96 18.883 21.107.676.434 1.934-.037 2.921-.088 0 0 .221.152.2.979.016 4.79 1.562 7.28 5.976 6.967.077.363.154.727.38 1.628z"/><path d="M1869.721 585.027c-9.661 1.911-9.691 1.911-9.816 11.385l-.009 14.995-.001 1235.636c0 2.999-.032 5.998-.59 9.745-1.486.242-2.432-.265-3.377-.771-.542-2.554-1.615-5.126-1.526-7.658.253-7.267 1.446-14.517 1.447-21.775l.067-1192.5.058-46.687c.033-3.875.748-7.744 1.312-13.19 4.906 4.134 8.528 7.186 12.435 10.819z" class="F"/><path fill="#ff9c2c" d="M1855.551 1856.531c1.323-.007 2.269.499 3.71 1.187 3.604 3.633 6.562 7.235 9.841 10.516l201.444 201.399 197.804 197.825c2.117 2.116 4.352 4.114 7.147 6.491 1.07.875 1.524 1.427 2.469 2.238.359 1.636.227 3.011.035 5.08-4.318.503-8.578.314-13.421-1.156-.274-6.854-4.837-9.326-8.014-12.507l-294.781-294.911-61.007-61.932-37.057-36.381c-4.089-4.248-8.078-7.648-13.87-8.712l.312-6.843c1.734-1.096 3.372-1.439 5.387-2.295z"/><path d="M2269.714 985.065c-.718.629-1.976 1.101-2.652.666-8.009-5.146-15.55-10.781-18.81-21.002 7.125 6.108 14.159 12.932 21.462 20.336zm-379.572-380.204c-1.107.466-2.839.756-3.527.041-5.553-5.772-10.91-11.733-16.264-18.33 8.734 3.132 14.001 10.594 19.791 18.289zm36.011 35.969c-1.116.475-2.862.781-3.543.069-5.554-5.807-10.909-11.804-16.248-18.45 8.545 3.38 14.115 10.545 19.792 18.381zm113.966 114.084c-7.793-.654-15.238-7.356-17.759-16.321 5.974 4.736 11.8 10.203 17.759 16.321zm95.691 96.13c-9.111.32-12.699-6.342-15.42-14.586 5.091 4.192 10.092 9.111 15.42 14.586zm111.912 112.033c-8.734-.078-13.055-5.905-15.439-14.479 5.133 4.144 10.153 9.022 15.439 14.479zm-263.594-264.17c-7.225-.439-10.628-5.99-13.777-12.452 4.596 3.463 9.12 7.635 13.777 12.452zm-36.007-35.963c-7.198-.501-10.632-6.017-13.738-12.509 4.595 3.481 9.102 7.67 13.738 12.509zm71.689 72.023c-8.166.889-11.592-4.582-13.543-12.364 4.476 3.449 8.847 7.637 13.543 12.364zm136.004 136.086c-8.087.735-11.631-4.614-13.519-12.454 4.475 3.476 8.837 7.689 13.519 12.454zm-57.998-58.005c-7.182 1.227-10.338-3.151-11.483-10.449 3.812 2.809 7.488 6.356 11.483 10.449zm131.997 132.004c-5.855 1.2-9.193-1.554-9.518-8.535 3.14 2.153 6.167 5.067 9.518 8.535zm-17.979-18.023c-4.595 1.363-7.609-.232-7.55-6.404 2.489 1.457 4.867 3.669 7.55 6.404zm64.266 65.94c-4.356.933-5.901-1.557-5.841-6.237 1.993 1.395 3.887 3.505 5.841 6.237zm-378.051-380.03c-3.315 1.023-5.205-.516-5.641-4.523 1.923.829 3.753 2.359 5.641 4.523zm6.085 5.992c-3.217 1.089-5.192-.357-5.773-4.345 1.926.779 3.786 2.25 5.773 4.345zm180.014 179.954c-3.308 1.159-5.244-.372-5.79-4.432 1.933.798 3.797 2.304 5.79 4.432zm-16.034-15.888c-1.175-.248-2.484-1.075-3.736-2.574 1.238.217 2.42 1.106 3.736 2.574zm44 43.998c-1.176-.247-2.486-1.074-3.74-2.575 1.239.216 2.423 1.106 3.74 2.575zm55.995 56.024c-1.178-.25-2.489-1.082-3.754-2.587 1.237.22 2.429 1.112 3.754 2.587z" class="F"/><path fill="#feb101" d="M1848.931 1865.73c6.714 1.002 10.702 4.402 14.792 8.65 12 12.466 24.842 24.116 37.057 36.381l61.007 61.932 294.781 294.911c3.177 3.181 7.74 5.653 7.421 12.002-5.932 1.337-11.853 2.39-17.775 2.392l-1217.832.181c-8.859.003-17.486-1.789-26.582-1.047-8.186.668-14.551-6.97-20.464-12.854l-30.088-30.07c-4.164-4.26-7.567-9.277-11.816-13.44l-50.004-48.467c-11.49-11.422-22.252-23.571-33.594-35.147l-43.61-43.7-28.119-28.042c-6.199-5.996-13.019-11.355-19.13-17.433-5.401-5.371-9.981-11.561-15.317-17.005l-39.33-39.35-46.409-44.996c-9.433-9.363-18.094-19.504-27.514-28.881l-47.5-46.419c-1.785-1.769-2.318-4.801-3.941-8.368 4.187-.515 6.701-1.077 9.219-1.092l41.994-.033 1206.833-.003c1.666 0 3.332-.026 5.92-.101z"/><path fill="#f8413f" d="M148.715 151.327c1.988 1.53 3.377 3.055 5.369 5.562 1.328 2.075 1.892 3.327 2.799 4.238l48.688 48.672c1.532 1.518 3.776 2.316 5.689 3.448l4.808 5.641 18.239 20.635c5.553 5.983 11.178 11.916 17.052 17.58 4.372 4.215 9.193 7.965 13.813 11.922.605.275 1.21.551 2.667 1.845 2.96 3.512 4.914 6.158 7.203 8.473l31.294 31.373c2.082 2.096 4.084 4.303 5.881 6.644 6.862 8.939 14.949 16.477 24.748 22.114 1.615 1.369 3.23 2.738 5.293 5.38 11.102 12.849 21.513 24.661 32.49 35.922 8.046 8.255 17.068 15.552 25.225 23.707 7.922 7.921 15.136 16.55 23.018 24.513 2.076 2.098 5.477 2.884 8.27 4.273 2.32 2.745 4.64 5.49 7.275 9.461 5.072 5.577 9.829 9.93 14.586 14.282 1.484.861 2.968 1.723 5.01 3.847 6.004 6.33 11.45 11.398 16.897 16.465.291.294.582.587 1.194 1.927 2.667 7.121 6.885 11.346 12.908 13.788l9.236 8.833c1.778 2.813 2.774 5.312 4.512 7.083l33.759 33.77c2.81 2.76 6.457 4.695 9.14 7.553 5.738 6.112 10.499 12.812 8.874 22.834.243 4.511.265 8.185.836 12.412.499 6.547.404 12.541.404 18.534l-.006 1174.028.104 10.919c-3.344 5.714-1.9 10.855-.486 16.509.516 7.904.481 15.252.515 23.511-1.138 2.829-2.346 4.747-3.795 7.328-10.075-2.91-15.942-11.311-22.996-18.208l-37.881-37.731-19.106-19.064-33.645-35.228-67.045-66.627-42.679-43.093c-9.164-9.068-18.924-17.533-28.089-26.599-6.13-6.064-11.465-12.927-17.538-19.055l-69.058-69.174-45.104-45.019-33.189-32.203c-1.174-7.191-2.079-14.109-2.08-21.028l.047-1243.605c.001-4.675-2.21-10.073 3.363-14.342 4.173 1.76 7.534 3.855 11.494 5.954z"/><path d="M431.316 432.677c-2.847-.8-6.248-1.586-8.324-3.684-7.883-7.963-15.096-16.592-23.018-24.513-8.156-8.155-17.179-15.452-25.225-23.707-10.977-11.261-21.388-23.074-32.127-35.201 2.328.863 5.202 1.831 7.077 3.766l28.715 30.333c9.365 9.375 19.497 17.98 28.944 27.277 8.255 8.124 16.026 16.741 23.958 25.728zm-94.176-93.792c-9.973-5.05-18.06-12.588-24.922-21.527-1.797-2.341-3.8-4.548-5.881-6.644l-31.294-31.373c-2.289-2.315-4.242-4.96-6.311-8.026 2.187.753 4.673 1.733 6.427 3.457l35.857 35.766 22.239 22.302c1.573 1.604 2.718 3.628 3.886 6.045zM211.313 212.661c-1.966-.546-4.21-1.345-5.742-2.862l-48.688-48.672c-.907-.911-1.471-2.163-2.157-3.83 1.962.531 4.233 1.285 5.757 2.794l48.723 48.707c.904.909 1.448 2.177 2.107 3.863zm53.96 55.785c-4.721-3.38-9.542-7.13-13.913-11.345-5.874-5.664-11.499-11.596-17.052-17.58a423.67 423.67 0 0 1-17.58-20.205c2.174.741 4.647 1.71 6.39 3.423l36.253 36.281c2.45 2.511 4.024 5.877 5.902 9.425zm209.904 208.299c-5.594-4.491-11.041-9.559-16.568-15.166 8.015 1.732 11.894 8.685 16.568 15.166zm-21.945-20.288c-4.866-3.8-9.623-8.153-14.312-13.057 4.852 3.8 9.637 8.153 14.312 13.057zm36.012 36.027c-6.135-1.889-10.353-6.114-12.635-12.75 4.292 3.692 8.519 7.944 12.635 12.75z" class="D"/><defs ><path id="B" d="M2121.917 813.358c-1.195-.264-2.474-1.17-3.834-2.717 1.195.264 2.474 1.17 3.834 2.717z"/></defs></svg>
