<?xml version="1.0"?><svg version="1.2" baseProfile="tiny-ps" viewBox="0 0 300 300" xmlns="http://www.w3.org/2000/svg" xmlns:xlink="http://www.w3.org/1999/xlink"><title>KSEC - Kalman Security</title><g><g fill="#fffffd" transform="matrix(.1 0 0 -.1 0 300)"><path d="M0 1500V0h3000v3000H0V1500z"/></g><g fill="#f9d5c6" transform="matrix(.1 0 0 -.1 0 300)"><path d="M0 2093v-898l598-597L1195 0h1805v1805l-593 593-592 592H0v-897zm2400-603V600H610v1780h1790v-890z"/></g><g fill="#f4d78d" transform="matrix(.1 0 0 -.1 0 300)"><path d="M10 2092v-897l293-293c160-160 295-292 300-292h7v1770h1790V600H620v-8c0-4 132-139 293-300L1205 0h1795v1795l-598 598-597 597H10v-898z"/></g><g fill="#feb205" transform="matrix(.1 0 0 -.1 0 300)"><path d="M10 2090v-895l293-293c160-160 295-292 300-292h7v1780h1785l-295 295-295 295-897 2-898 3v-895zm2390-598V590H630v-8c0-4 129-136 288-295L1205 0h1795v1795l-300 300-300 300v-903z"/></g><g fill="#ef9293" transform="matrix(.1 0 0 -.1 0 300)"><path d="M10 2095v-900l293-293c160-160 295-292 300-292h7v1784l-300 300-300 301v-900zm2390-597V601l294-296c161-162 296-295 300-295h6v1785l-300 300-300 300v-897z"/></g><g fill="#f84140" transform="matrix(.1 0 0 -.1 0 300)"><path d="M10 2092v-887l295-295 295-295v1789l-287 288c-158 158-291 288-295 288h-8v-888zm2400-604V591l288-290c159-160 292-291 295-291h7v1785l-295 295-295 295v-897z"/></g></g></svg>
